<?xml version="1.0" encoding="utf-8"?>
<!-- Generator: Adobe Illustrator 27.3.1, SVG Export Plug-In . SVG Version: 6.00 Build 0)  -->
<svg version="1.1" id="Capa_1" xmlns="http://www.w3.org/2000/svg" xmlns:xlink="http://www.w3.org/1999/xlink" x="0px" y="0px"
	 viewBox="0 0 640 427" style="enable-background:new 0 0 640 427;" xml:space="preserve">
<image style="overflow:visible;" width="239" height="134" xlink:href="D:\nube.empresasuv.mx\Mis imagenes\Monedas y billetes\png\20.png"  transform="matrix(2.3347 0 0 2.3347 41.6639 94.2101)">
</image>
<image style="overflow:visible;" width="239" height="134" xlink:href="D:\nube.empresasuv.mx\Mis imagenes\Monedas y billetes\png\50.png"  transform="matrix(2.3347 0 0 2.3347 41.6639 94.2101)">
</image>
<image style="overflow:visible;" width="239" height="134" xlink:href="D:\nube.empresasuv.mx\Mis imagenes\Monedas y billetes\png\100.png"  transform="matrix(2.3347 0 0 2.3347 41.6639 94.2101)">
</image>
<image style="overflow:visible;" width="239" height="134" xlink:href="D:\nube.empresasuv.mx\Mis imagenes\Monedas y billetes\png\200.png"  transform="matrix(2.3347 0 0 2.3347 41.6639 94.2101)">
</image>
<image style="overflow:visible;" width="239" height="134" xlink:href="D:\nube.empresasuv.mx\Mis imagenes\Monedas y billetes\png\500.png"  transform="matrix(2.3347 0 0 2.3347 41.6639 94.2101)">
</image>
<image style="overflow:visible;" width="239" height="134" xlink:href="D:\nube.empresasuv.mx\Mis imagenes\Monedas y billetes\png\1000.png"  transform="matrix(2.3347 0 0 2.3347 41.6639 94.2101)">
</image>
<g>
	<g>
		<path d="M390.9,83.6h-7.5V50.4l-5.2,2.2v-8l5.7-2.9h7V83.6z"/>
		<path d="M402.5,76h7.5v10.3l-7.5,7.4V76z"/>
		<path d="M424,81.1c-1.9-1.9-2.9-4.6-2.9-8.1V52.2c0-3.5,1-6.2,2.9-8.1c1.9-1.9,4.7-2.9,8.2-2.9s6.3,1,8.2,2.9
			c1.9,1.9,2.9,4.6,2.9,8.1V73c0,3.5-1,6.2-2.9,8.1c-1.9,1.9-4.7,2.9-8.2,2.9C428.7,84,425.9,83,424,81.1z M434.9,75.5
			c0.6-0.8,0.9-2,0.9-3.5V53.2c0-1.5-0.3-2.6-0.9-3.4c-0.6-0.8-1.5-1.2-2.7-1.2c-1.2,0-2.1,0.4-2.7,1.2c-0.6,0.8-0.9,2-0.9,3.4V72
			c0,1.5,0.3,2.7,0.9,3.5c0.6,0.8,1.5,1.2,2.7,1.2C433.4,76.7,434.3,76.3,434.9,75.5z"/>
		<path d="M458.4,81.1c-1.9-1.9-2.9-4.6-2.9-8.1V52.2c0-3.5,1-6.2,2.9-8.1c1.9-1.9,4.7-2.9,8.2-2.9s6.3,1,8.2,2.9
			c1.9,1.9,2.9,4.6,2.9,8.1V73c0,3.5-1,6.2-2.9,8.1c-1.9,1.9-4.7,2.9-8.2,2.9C463.1,84,460.3,83,458.4,81.1z M469.4,75.5
			c0.6-0.8,0.9-2,0.9-3.5V53.2c0-1.5-0.3-2.6-0.9-3.4c-0.6-0.8-1.5-1.2-2.7-1.2c-1.2,0-2.1,0.4-2.7,1.2c-0.6,0.8-0.9,2-0.9,3.4V72
			c0,1.5,0.3,2.7,0.9,3.5c0.6,0.8,1.5,1.2,2.7,1.2C467.9,76.7,468.8,76.3,469.4,75.5z"/>
		<path d="M492.9,81.1c-1.9-1.9-2.9-4.6-2.9-8.1V52.2c0-3.5,1-6.2,2.9-8.1c1.9-1.9,4.7-2.9,8.2-2.9s6.3,1,8.2,2.9
			c1.9,1.9,2.9,4.6,2.9,8.1V73c0,3.5-1,6.2-2.9,8.1c-1.9,1.9-4.7,2.9-8.2,2.9C497.5,84,494.8,83,492.9,81.1z M503.8,75.5
			c0.6-0.8,0.9-2,0.9-3.5V53.2c0-1.5-0.3-2.6-0.9-3.4c-0.6-0.8-1.5-1.2-2.7-1.2c-1.2,0-2.1,0.4-2.7,1.2c-0.6,0.8-0.9,2-0.9,3.4V72
			c0,1.5,0.3,2.7,0.9,3.5c0.6,0.8,1.5,1.2,2.7,1.2C502.3,76.7,503.2,76.3,503.8,75.5z"/>
		<path d="M523.3,76h7.5v7.5h-7.5V76z"/>
		<path d="M544.8,81.1c-1.9-1.9-2.9-4.6-2.9-8.1V52.2c0-3.5,1-6.2,2.9-8.1c1.9-1.9,4.7-2.9,8.2-2.9s6.3,1,8.2,2.9
			c1.9,1.9,2.9,4.6,2.9,8.1V73c0,3.5-1,6.2-2.9,8.1c-1.9,1.9-4.7,2.9-8.2,2.9C549.5,84,546.7,83,544.8,81.1z M555.8,75.5
			c0.6-0.8,0.9-2,0.9-3.5V53.2c0-1.5-0.3-2.6-0.9-3.4c-0.6-0.8-1.5-1.2-2.7-1.2c-1.2,0-2.1,0.4-2.7,1.2c-0.6,0.8-0.9,2-0.9,3.4V72
			c0,1.5,0.3,2.7,0.9,3.5c0.6,0.8,1.5,1.2,2.7,1.2C554.3,76.7,555.2,76.3,555.8,75.5z"/>
		<path d="M579.3,81.1c-1.9-1.9-2.9-4.6-2.9-8.1V52.2c0-3.5,1-6.2,2.9-8.1c1.9-1.9,4.7-2.9,8.2-2.9s6.3,1,8.2,2.9
			c1.9,1.9,2.9,4.6,2.9,8.1V73c0,3.5-1,6.2-2.9,8.1c-1.9,1.9-4.7,2.9-8.2,2.9C583.9,84,581.2,83,579.3,81.1z M590.2,75.5
			c0.6-0.8,0.9-2,0.9-3.5V53.2c0-1.5-0.3-2.6-0.9-3.4c-0.6-0.8-1.5-1.2-2.7-1.2c-1.2,0-2.1,0.4-2.7,1.2c-0.6,0.8-0.9,2-0.9,3.4V72
			c0,1.5,0.3,2.7,0.9,3.5c0.6,0.8,1.5,1.2,2.7,1.2C588.7,76.7,589.6,76.3,590.2,75.5z"/>
	</g>
</g>
</svg>
