<?xml version="1.0" encoding="utf-8"?>
<!-- Generator: Adobe Illustrator 27.3.1, SVG Export Plug-In . SVG Version: 6.00 Build 0)  -->
<svg version="1.1" id="Capa_1" xmlns="http://www.w3.org/2000/svg" xmlns:xlink="http://www.w3.org/1999/xlink" x="0px" y="0px"
	 viewBox="0 0 500 500" style="enable-background:new 0 0 500 500;" xml:space="preserve">
<style type="text/css">
	.st0{fill:#A81815;}
	.st1{fill:#DC0D15;}
	.st2{clip-path:url(#SVGID_00000052805453968738366290000014895785699313210288_);}
	.st3{fill:#DADADA;}
	.st4{opacity:0.3;fill:#DADADA;}
	.st5{fill:#A81815;stroke:#BE1622;stroke-miterlimit:10;}
	.st6{clip-path:url(#SVGID_00000061439401370037499310000009388484896340121761_);fill:#DC0D15;}
	.st7{clip-path:url(#SVGID_00000139985103715143752060000011671326883694715318_);fill:#DC0D15;}
	.st8{clip-path:url(#SVGID_00000151525045289118711890000015652596893252637867_);fill:#DC0D15;}
</style>
<g>
	<path class="st0" d="M408.42,168.53L279.98,464.49c-4.11,9.42-7.81,16.59-12.07,21.57c-2.26,2.65-4.63,4.69-7.22,6.13
		c16.49-1.61,44.5-7.23,75.69-23.91c3.29-1.7,6.5-3.54,9.66-5.48l0.44-0.28c8.47-5.05,16.21-11.08,23.23-17.79
		c28.92-26.93,47.26-65.03,48.04-107.46l8-200.67C420.89,136.54,418.93,144.29,408.42,168.53"/>
	<path class="st0" d="M89.56,168.53L218,464.49c4.07,9.42,7.82,16.59,12.06,21.57c2.27,2.65,4.62,4.69,7.21,6.13
		c-16.48-1.61-44.47-7.23-75.68-23.91c-3.29-1.7-6.48-3.54-9.66-5.48l-0.44-0.28c-8.43-5.05-16.23-11.08-23.24-17.79
		C99.36,417.81,81,379.71,80.22,337.28l-7.97-200.67C77.11,136.54,79.04,144.29,89.56,168.53"/>
	<path class="st1" d="M400.09,111.25c-9.32-16.74-30.75-55.24-44.62-80c-7.39-13.29-13.06-22.63-35.55-22.63
		c-38.05,0-113.19,0-143.72,0c-14.57,0-22.44,2.07-34.43,23.09c-9.49,16.58-30.99,54.85-44.68,80.08c-12.18,22.4-1.8,40.3,1,46.48
		c4.8,10.52,130.95,300.41,130.95,300.41c3.68,8.45,6.93,14.77,10.36,18.83c2.75,3.22,5.67,4.86,9.2,4.88
		c3.57-0.02,6.46-1.66,9.22-4.88c3.44-4.07,6.69-10.39,10.35-18.83c0,0,125.05-285.49,131.95-299.76
		C403.27,152.38,413.24,135.06,400.09,111.25z"/>
	<g>
		<defs>
			<path id="SVGID_1_" d="M400.09,111.25c-9.32-16.74-30.75-55.24-44.62-80c-7.39-13.29-13.06-22.63-35.55-22.63
				c-38.05,0-113.19,0-143.72,0c-14.57,0-22.44,2.07-34.43,23.09c-9.49,16.58-30.99,54.85-44.68,80.08c-12.18,22.4-1.8,40.3,1,46.48
				c4.8,10.52,130.95,300.41,130.95,300.41c3.68,8.45,6.93,14.77,10.36,18.83c2.75,3.22,5.67,4.86,9.2,4.88
				c3.57-0.02,6.46-1.66,9.22-4.88c3.44-4.07,6.69-10.39,10.35-18.83c0,0,125.05-285.49,131.95-299.76
				C403.27,152.38,413.24,135.06,400.09,111.25z"/>
		</defs>
		<clipPath id="SVGID_00000156583226555673416020000002311403264878784142_">
			<use xlink:href="#SVGID_1_"  style="overflow:visible;"/>
		</clipPath>
		<g style="clip-path:url(#SVGID_00000156583226555673416020000002311403264878784142_);">
			<path class="st3" d="M299.41,326.55c0,7.6-22.02,13.77-49.18,13.77s-49.18-6.17-49.18-13.77c0-7.6,22.02-13.78,49.18-13.78
				S299.41,318.95,299.41,326.55z"/>
			<polygon class="st4" points="299.41,326.55 201.05,326.55 250.23,-17.7 			"/>
			<g>
				<path class="st5" d="M367.79,91.9c47.73,0,86.49-47.78,86.49-82.68H281.27C281.27,44.13,319.98,91.9,367.79,91.9z"/>
				<g>
					<defs>
						<path id="SVGID_00000093885593104443409410000008441887974649304255_" d="M367.79,91.9c47.73,0,86.49-47.78,86.49-82.68
							H281.27C281.27,44.13,319.98,91.9,367.79,91.9z"/>
					</defs>
					<clipPath id="SVGID_00000039828049807928938700000004293471615304054167_">
						<use xlink:href="#SVGID_00000093885593104443409410000008441887974649304255_"  style="overflow:visible;"/>
					</clipPath>
					<path style="clip-path:url(#SVGID_00000039828049807928938700000004293471615304054167_);fill:#DC0D15;" d="M367.79,66.84
						c-33.16,0-61.39-28.6-72.6-57.82c2.55,32.41,34.01,73.76,72.6,73.76c38.52,0,70.03-41.37,72.58-73.79
						C429.15,38.24,400.92,66.84,367.79,66.84z"/>
					<path style="clip-path:url(#SVGID_00000039828049807928938700000004293471615304054167_);fill:#DC0D15;" d="M367.19,35.62
						c-30.43,0-56.38-19.37-66.67-39.12c2.32,21.9,31.24,49.9,66.67,49.9c35.38,0,64.33-28.01,66.64-49.94
						C423.55,16.25,397.6,35.62,367.19,35.62z"/>
				</g>
			</g>
			<g>
				<path class="st5" d="M134.74,91.9c47.74,0,86.49-47.78,86.49-82.68h-173C48.23,44.13,86.94,91.9,134.74,91.9z"/>
				<g>
					<defs>
						<path id="SVGID_00000094606023616015378090000006800084827157679767_" d="M134.74,91.9c47.74,0,86.49-47.78,86.49-82.68h-173
							C48.23,44.13,86.94,91.9,134.74,91.9z"/>
					</defs>
					<clipPath id="SVGID_00000113318247300693512410000014572924817382922385_">
						<use xlink:href="#SVGID_00000094606023616015378090000006800084827157679767_"  style="overflow:visible;"/>
					</clipPath>
					<path style="clip-path:url(#SVGID_00000113318247300693512410000014572924817382922385_);fill:#DC0D15;" d="M134.74,66.84
						c-33.14,0-61.36-28.6-72.59-57.82c2.55,32.41,34.02,73.76,72.59,73.76c38.53,0,70.03-41.37,72.57-73.79
						C196.09,38.24,167.86,66.84,134.74,66.84z"/>
					<path style="clip-path:url(#SVGID_00000113318247300693512410000014572924817382922385_);fill:#DC0D15;" d="M134.15,35.62
						c-30.43,0-56.37-19.37-66.66-39.12c2.32,21.9,31.23,49.9,66.66,49.9c35.37,0,64.33-28.01,66.64-49.94
						C190.5,16.25,164.55,35.62,134.15,35.62z"/>
				</g>
			</g>
			<g>
				<path class="st5" d="M251.03,91.9c47.73,0,86.48-47.78,86.48-82.68h-173C164.51,44.13,203.22,91.9,251.03,91.9z"/>
				<g>
					<defs>
						<path id="SVGID_00000066481700944094597080000010613298494741990813_" d="M251.03,91.9c47.73,0,86.48-47.78,86.48-82.68h-173
							C164.51,44.13,203.22,91.9,251.03,91.9z"/>
					</defs>
					<clipPath id="SVGID_00000122696754795440939120000008246703645746287280_">
						<use xlink:href="#SVGID_00000066481700944094597080000010613298494741990813_"  style="overflow:visible;"/>
					</clipPath>
					<path style="clip-path:url(#SVGID_00000122696754795440939120000008246703645746287280_);fill:#DC0D15;" d="M251.03,66.84
						c-33.16,0-61.39-28.6-72.6-57.82c2.54,32.41,34,73.76,72.6,73.76c38.52,0,70.03-41.37,72.56-73.79
						C312.39,38.24,284.16,66.84,251.03,66.84z"/>
					<path style="clip-path:url(#SVGID_00000122696754795440939120000008246703645746287280_);fill:#DC0D15;" d="M250.43,35.62
						c-30.42,0-56.37-19.37-66.66-39.12c2.32,21.9,31.22,49.9,66.66,49.9c35.38,0,64.33-28.01,66.65-49.94
						C306.8,16.25,280.84,35.62,250.43,35.62z"/>
				</g>
			</g>
		</g>
	</g>
</g>
</svg>
