<?xml version="1.0" encoding="utf-8"?>
<!-- Generator: Adobe Illustrator 27.3.1, SVG Export Plug-In . SVG Version: 6.00 Build 0)  -->
<svg version="1.1" id="Capa_1" xmlns="http://www.w3.org/2000/svg" xmlns:xlink="http://www.w3.org/1999/xlink" x="0px" y="0px"
	 viewBox="0 0 500 500" style="enable-background:new 0 0 500 500;" xml:space="preserve">
<style type="text/css">
	.st0{fill:#C5C5C5;}
	.st1{fill:#CECECE;}
	.st2{clip-path:url(#SVGID_00000114046009463900484190000005484755438319160473_);}
	.st3{fill:#FFFFFF;}
	.st4{opacity:0.3;fill:#FFFFFF;enable-background:new    ;}
	.st5{fill:#C5C5C5;stroke:#CCCCCC;stroke-miterlimit:10;}
	.st6{clip-path:url(#SVGID_00000162330206119922598100000008621724521564325307_);fill:#CECECE;}
	.st7{clip-path:url(#SVGID_00000013883109498788329840000016206114203263147170_);fill:#CECECE;}
	.st8{clip-path:url(#SVGID_00000057866252618296292240000009936885942130943627_);fill:#CECECE;}
	.st9{clip-path:url(#SVGID_00000089572205711697360010000012485996788509989778_);fill:#CECECE;}
	.st10{clip-path:url(#SVGID_00000162330931377191716670000004637493547229468296_);fill:#CECECE;}
	.st11{clip-path:url(#SVGID_00000064323265061696568350000007323692315770887573_);fill:#CECECE;}
</style>
<g>
	<path class="st0" d="M408.4,168.5L280,464.5c-4.1,9.4-7.8,16.6-12.1,21.6c-2.3,2.6-4.6,4.7-7.2,6.1c16.5-1.6,44.5-7.2,75.7-23.9
		c3.3-1.7,6.5-3.5,9.7-5.5l0.4-0.3c8.5-5,16.2-11.1,23.2-17.8c28.9-26.9,47.3-65,48-107.5l8-200.7
		C420.9,136.5,418.9,144.3,408.4,168.5"/>
	<path class="st0" d="M89.6,168.5l128.4,296c4.1,9.4,7.8,16.6,12.1,21.6c2.3,2.6,4.6,4.7,7.2,6.1c-16.5-1.6-44.5-7.2-75.7-23.9
		c-3.3-1.7-6.5-3.5-9.7-5.5l-0.4-0.3c-8.4-5-16.2-11.1-23.2-17.8c-28.9-26.9-47.2-65-48-107.4l-8-200.7
		C77.1,136.5,79,144.3,89.6,168.5"/>
	<path class="st1" d="M400.1,111.2c-9.3-16.7-30.8-55.2-44.6-80C348.1,18,342.4,8.6,319.9,8.6c-38,0-113.2,0-143.7,0
		c-14.6,0-22.4,2.1-34.4,23.1c-9.5,16.6-31,54.8-44.7,80.1c-12.2,22.4-1.8,40.3,1,46.5C102.9,168.8,229,458.7,229,458.7
		c3.7,8.5,6.9,14.8,10.4,18.8c2.8,3.2,5.7,4.9,9.2,4.9c3.6,0,6.5-1.7,9.2-4.9c3.4-4.1,6.7-10.4,10.4-18.8
		c0,0,125.1-285.5,131.9-299.8C403.3,152.4,413.2,135.1,400.1,111.2z"/>
	<g>
		<g>
			<defs>
				<path id="SVGID_1_" d="M400.1,111.2c-9.3-16.7-30.8-55.2-44.6-80C348.1,18,342.4,8.6,319.9,8.6c-38,0-113.2,0-143.7,0
					c-14.6,0-22.4,2.1-34.4,23.1c-9.5,16.6-31,54.8-44.7,80.1c-12.2,22.4-1.8,40.3,1,46.5C102.9,168.8,229,458.7,229,458.7
					c3.7,8.5,6.9,14.8,10.4,18.8c2.8,3.2,5.7,4.9,9.2,4.9c3.6,0,6.5-1.7,9.2-4.9c3.4-4.1,6.7-10.4,10.4-18.8
					c0,0,125.1-285.5,131.9-299.8C403.3,152.4,413.2,135.1,400.1,111.2z"/>
			</defs>
			<clipPath id="SVGID_00000044886281804616461860000007144875794766406784_">
				<use xlink:href="#SVGID_1_"  style="overflow:visible;"/>
			</clipPath>
			<g style="clip-path:url(#SVGID_00000044886281804616461860000007144875794766406784_);">
				<path class="st3" d="M299.4,326.5c0,7.6-22,13.8-49.2,13.8s-49.2-6.2-49.2-13.8c0-7.6,22-13.8,49.2-13.8S299.4,319,299.4,326.5z
					"/>
				<polygon class="st4" points="299.4,326.5 201.1,326.5 250.2,-17.7 				"/>
				<g>
					<path class="st5" d="M367.8,91.9c47.7,0,86.5-47.8,86.5-82.7h-173C281.3,44.1,320,91.9,367.8,91.9z"/>
					<g>
						<g>
							<defs>
								<path id="SVGID_00000137820295799980925250000018434360686961647008_" d="M367.8,91.9c47.7,0,86.5-47.8,86.5-82.7h-173
									C281.3,44.1,320,91.9,367.8,91.9z"/>
							</defs>
							<clipPath id="SVGID_00000033370685132145610870000001322845181042850946_">
								<use xlink:href="#SVGID_00000137820295799980925250000018434360686961647008_"  style="overflow:visible;"/>
							</clipPath>
							<path style="clip-path:url(#SVGID_00000033370685132145610870000001322845181042850946_);fill:#CECECE;" d="M367.8,66.8
								c-33.2,0-61.4-28.6-72.6-57.8c2.5,32.4,34,73.8,72.6,73.8c38.5,0,70-41.4,72.6-73.8C429.1,38.2,400.9,66.8,367.8,66.8z"/>
						</g>
						<g>
							<defs>
								<path id="SVGID_00000150823458817159447900000007859295735365141692_" d="M367.8,91.9c47.7,0,86.5-47.8,86.5-82.7h-173
									C281.3,44.1,320,91.9,367.8,91.9z"/>
							</defs>
							<clipPath id="SVGID_00000168100118387094819390000012334158962616774786_">
								<use xlink:href="#SVGID_00000150823458817159447900000007859295735365141692_"  style="overflow:visible;"/>
							</clipPath>
							<path style="clip-path:url(#SVGID_00000168100118387094819390000012334158962616774786_);fill:#CECECE;" d="M367.2,35.6
								c-30.4,0-56.4-19.4-66.7-39.1c2.3,21.9,31.2,49.9,66.7,49.9c35.4,0,64.3-28,66.6-49.9C423.5,16.2,397.6,35.6,367.2,35.6z"/>
						</g>
					</g>
				</g>
				<g>
					<path class="st5" d="M134.7,91.9c47.7,0,86.5-47.8,86.5-82.7h-173C48.2,44.1,86.9,91.9,134.7,91.9z"/>
					<g>
						<g>
							<defs>
								<path id="SVGID_00000080180251919308768060000007066530852267269310_" d="M134.7,91.9c47.7,0,86.5-47.8,86.5-82.7h-173
									C48.2,44.1,86.9,91.9,134.7,91.9z"/>
							</defs>
							<clipPath id="SVGID_00000109731063942804436410000017711254710322902696_">
								<use xlink:href="#SVGID_00000080180251919308768060000007066530852267269310_"  style="overflow:visible;"/>
							</clipPath>
							<path style="clip-path:url(#SVGID_00000109731063942804436410000017711254710322902696_);fill:#CECECE;" d="M134.7,66.8
								c-33.1,0-61.4-28.6-72.6-57.8c2.6,32.4,34,73.8,72.6,73.8c38.5,0,70-41.4,72.6-73.8C196.1,38.2,167.9,66.8,134.7,66.8z"/>
						</g>
						<g>
							<defs>
								<path id="SVGID_00000124861922265490879460000000817574157099631498_" d="M134.7,91.9c47.7,0,86.5-47.8,86.5-82.7h-173
									C48.2,44.1,86.9,91.9,134.7,91.9z"/>
							</defs>
							<clipPath id="SVGID_00000055666028495237994580000013460585926501140885_">
								<use xlink:href="#SVGID_00000124861922265490879460000000817574157099631498_"  style="overflow:visible;"/>
							</clipPath>
							<path style="clip-path:url(#SVGID_00000055666028495237994580000013460585926501140885_);fill:#CECECE;" d="M134.1,35.6
								c-30.4,0-56.4-19.4-66.7-39.1c2.3,21.9,31.2,49.9,66.7,49.9c35.4,0,64.3-28,66.6-49.9C190.5,16.2,164.6,35.6,134.1,35.6z"/>
						</g>
					</g>
				</g>
				<g>
					<path class="st5" d="M251,91.9c47.7,0,86.5-47.8,86.5-82.7h-173C164.5,44.1,203.2,91.9,251,91.9z"/>
					<g>
						<g>
							<defs>
								<path id="SVGID_00000067228295213049879650000010259737781586232243_" d="M251,91.9c47.7,0,86.5-47.8,86.5-82.7h-173
									C164.5,44.1,203.2,91.9,251,91.9z"/>
							</defs>
							<clipPath id="SVGID_00000155107086285622100160000008957668879177121674_">
								<use xlink:href="#SVGID_00000067228295213049879650000010259737781586232243_"  style="overflow:visible;"/>
							</clipPath>
							<path style="clip-path:url(#SVGID_00000155107086285622100160000008957668879177121674_);fill:#CECECE;" d="M251,66.8
								c-33.2,0-61.4-28.6-72.6-57.8c2.5,32.4,34,73.8,72.6,73.8c38.5,0,70-41.4,72.6-73.8C312.4,38.2,284.2,66.8,251,66.8z"/>
						</g>
						<g>
							<defs>
								<path id="SVGID_00000142145058607248857620000012314114710317095080_" d="M251,91.9c47.7,0,86.5-47.8,86.5-82.7h-173
									C164.5,44.1,203.2,91.9,251,91.9z"/>
							</defs>
							<clipPath id="SVGID_00000156549603044137678490000004021529160733611692_">
								<use xlink:href="#SVGID_00000142145058607248857620000012314114710317095080_"  style="overflow:visible;"/>
							</clipPath>
							<path style="clip-path:url(#SVGID_00000156549603044137678490000004021529160733611692_);fill:#CECECE;" d="M250.4,35.6
								c-30.4,0-56.4-19.4-66.7-39.1c2.3,21.9,31.2,49.9,66.7,49.9c35.4,0,64.3-28,66.6-49.9C306.8,16.2,280.8,35.6,250.4,35.6z"/>
						</g>
					</g>
				</g>
			</g>
		</g>
	</g>
</g>
</svg>
