<?xml version="1.0" encoding="utf-8"?>
<!-- Generator: Adobe Illustrator 27.3.1, SVG Export Plug-In . SVG Version: 6.00 Build 0)  -->
<svg version="1.1" id="Capa_1" xmlns="http://www.w3.org/2000/svg" xmlns:xlink="http://www.w3.org/1999/xlink" x="0px" y="0px"
	 viewBox="0 0 500 500" style="enable-background:new 0 0 500 500;" xml:space="preserve">
<style type="text/css">
	.st0{fill:#6A8439;}
	.st1{fill:#A9B78D;}
</style>
<g>
	<g>
		<path class="st0" d="M408.64,168.42L280.16,464.48c-4.11,9.43-7.81,16.6-12.08,21.58c-2.26,2.65-4.62,4.69-7.22,6.13
			c16.49-1.6,44.52-7.23,75.71-23.92c3.29-1.7,6.5-3.54,9.67-5.48l0.44-0.28c8.47-5.05,16.22-11.08,23.24-17.79
			c28.94-26.94,47.28-65.05,48.06-107.49l8-200.74C421.12,136.41,419.16,144.17,408.64,168.42"/>
		<path class="st0" d="M89.66,168.42l128.49,296.06c4.08,9.43,7.83,16.6,12.06,21.58c2.28,2.65,4.62,4.69,7.21,6.13
			c-16.49-1.6-44.49-7.23-75.7-23.92c-3.29-1.7-6.48-3.54-9.67-5.48l-0.45-0.28c-8.43-5.05-16.23-11.08-23.25-17.79
			c-28.91-26.94-47.26-65.05-48.05-107.49l-7.97-200.74C77.2,136.41,79.14,144.17,89.66,168.42"/>
		<path class="st1" d="M400.31,111.12c-9.32-16.75-30.75-55.26-44.64-80.04c-7.39-13.29-13.06-22.63-35.56-22.63
			c-38.07,0-113.24,0-143.77,0c-14.58,0-22.45,2.07-34.44,23.1c-9.5,16.59-31.02,54.86-44.71,80.1c-12.19,22.42-1.81,40.32,1,46.5
			c4.8,10.52,131.02,300.52,131.02,300.52c3.68,8.45,6.93,14.77,10.37,18.84c2.75,3.22,5.67,4.86,9.2,4.88
			c3.57-0.02,6.47-1.66,9.22-4.88c3.44-4.07,6.7-10.39,10.36-18.84c0,0,125.09-285.59,131.99-299.87
			C403.5,152.26,413.47,134.93,400.31,111.12z"/>
	</g>
	<path class="st0" d="M347.95,170.34L328,164.77c-4.13-6.76-9.46-12.93-15.82-18.33v-25.48c-3.83,0.17-7.7,1.1-11.4,2.86
		c-4.4,2.09-8.03,5.13-10.79,8.76c-12.88-5.69-27.62-8.93-43.27-8.93c-44.51,0-81.47,26.09-89.28,60.52
		c-8.04-4.06-13.46-11.83-14.56-20.58c-2.02,2.67-3.58,5.76-4.49,9.2c-3.72,13.93,4.3,28.16,17.93,32.43
		c2.38,19.13,13.75,36.05,30.54,48.06l9.48,27.26c1.73,4.83,4.72,8.66,10.57,8.66h14.15c5.85,0,8.75-3.8,10.6-8.66l3.3-9.52
		c3.86,0.41,7.77,0.7,11.76,0.7c3.98,0,7.9-0.29,11.74-0.7l3.31,9.52c1.49,4.24,4.73,8.66,10.57,8.66h14.15
		c5.85,0,8.46-3.47,10.58-8.66l9.49-27.27c8.84-6.32,16.13-14.01,21.43-22.67l19.95-5.57c6.91-1.96,12.98-5.71,12.98-12.75V183.1
		C360.93,176.05,356.67,172.52,347.95,170.34z M265.32,256.03c-3.12-7.65-7.04-15.24-11.8-22.61
		c-14.49-22.51-34.04-38.86-54.25-47.42c16.51,9.27,32.04,23.71,44.08,42.41c5.97,9.27,10.63,18.89,14.02,28.53
		c-12.88-1.29-38.74-6.11-55.29-24.09c-22.76-24.73-19.29-64.97-19.29-64.97s40.39-0.16,63.16,24.57
		C266.23,214.48,265.68,248.79,265.32,256.03z M265.2,147.53c-13.13-5.79-30.75-5.47-43.48,0.78c-0.39,0.19-0.79,0.28-1.19,0.28
		c-1.01,0-1.96-0.56-2.44-1.52c-0.65-1.34-0.1-2.97,1.24-3.63c14.14-6.96,33.49-7.3,48.07-0.87c1.37,0.6,1.99,2.2,1.38,3.57
		C268.17,147.51,266.58,148.14,265.2,147.53z M300.4,194.87c-2.28,13.49-12.94,23.63-18.59,28.17c-1.34-5.56-2.1-11.49-2.12-17.66
		c-0.05-12.44,2.83-23.95,7.75-33.34c-6.87,10.18-11.05,23.81-11,38.79c0.03,4.9,0.5,9.66,1.38,14.2
		c-2.38-3.27-13.1-19.21-10.31-35.73c3.15-18.53,22.13-30.77,22.13-30.77S303.53,176.33,300.4,194.87z"/>
</g>
</svg>
