<?xml version="1.0" encoding="utf-8"?>
<!-- Generator: Adobe Illustrator 27.3.1, SVG Export Plug-In . SVG Version: 6.00 Build 0)  -->
<svg version="1.1" id="Capa_1" xmlns="http://www.w3.org/2000/svg" xmlns:xlink="http://www.w3.org/1999/xlink" x="0px" y="0px"
	 viewBox="0 0 500 500" style="enable-background:new 0 0 500 500;" xml:space="preserve">
<style type="text/css">
	.st0{fill:#BBBBBB;}
	.st1{fill:#F6F6F6;}
</style>
<g>
	<g>
		<path class="st0" d="M408.6,168.4L280.2,464.5c-4.1,9.4-7.8,16.6-12.1,21.6c-2.3,2.6-4.6,4.7-7.2,6.1c16.5-1.6,44.5-7.2,75.7-23.9
			c3.3-1.7,6.5-3.5,9.7-5.5l0.4-0.3c8.5-5,16.2-11.1,23.2-17.8c28.9-26.9,47.3-65,48.1-107.5l8-200.7
			C421.1,136.4,419.2,144.2,408.6,168.4"/>
		<path class="st0" d="M89.7,168.4l128.5,296.1c4.1,9.4,7.8,16.6,12.1,21.6c2.3,2.6,4.6,4.7,7.2,6.1c-16.5-1.6-44.5-7.2-75.7-23.9
			c-3.3-1.7-6.5-3.5-9.7-5.5l-0.4-0.3c-8.4-5-16.2-11.1-23.2-17.8c-28.9-26.9-47.3-65.1-48.1-107.5l-8-200.7
			C77.2,136.4,79.1,144.2,89.7,168.4"/>
		<path class="st1" d="M400.3,111.1c-9.3-16.8-30.8-55.3-44.6-80c-7.4-13.3-13.1-22.6-35.6-22.6c-38.1,0-113.2,0-143.8,0
			c-14.6,0-22.4,2.1-34.4,23.1c-9.5,16.6-31,54.9-44.7,80.1c-12.2,22.4-1.8,40.3,1,46.5c4.8,10.5,131,300.5,131,300.5
			c3.7,8.5,6.9,14.8,10.4,18.8c2.8,3.2,5.7,4.9,9.2,4.9c3.6,0,6.5-1.7,9.2-4.9c3.4-4.1,6.7-10.4,10.4-18.8
			c0,0,125.1-285.6,132-299.9C403.5,152.3,413.5,134.9,400.3,111.1z"/>
	</g>
	<path class="st0" d="M348,170.3l-20-5.6c-4.1-6.8-9.5-12.9-15.8-18.3V121c-3.8,0.2-7.7,1.1-11.4,2.9c-4.4,2.1-8,5.1-10.8,8.8
		c-12.9-5.7-27.6-8.9-43.3-8.9c-44.5,0-81.5,26.1-89.3,60.5c-8-4.1-13.5-11.8-14.6-20.6c-2,2.7-3.6,5.8-4.5,9.2
		c-3.7,13.9,4.3,28.2,17.9,32.4c2.4,19.1,13.8,36.1,30.5,48.1l9.5,27.3c1.7,4.8,4.7,8.7,10.6,8.7h14.1c5.9,0,8.8-3.8,10.6-8.7
		l3.3-9.5c3.9,0.4,7.8,0.7,11.8,0.7c4,0,7.9-0.3,11.7-0.7l3.3,9.5c1.5,4.2,4.7,8.7,10.6,8.7h14.1c5.9,0,8.5-3.5,10.6-8.7l9.5-27.3
		c8.8-6.3,16.1-14,21.4-22.7l20-5.6c6.9-2,13-5.7,13-12.8v-29.2C360.9,176.1,356.7,172.5,348,170.3z M265.3,256
		c-3.1-7.6-7-15.2-11.8-22.6c-14.5-22.5-34-38.9-54.2-47.4c16.5,9.3,32,23.7,44.1,42.4c6,9.3,10.6,18.9,14,28.5
		c-12.9-1.3-38.7-6.1-55.3-24.1c-22.8-24.7-19.3-65-19.3-65s40.4-0.2,63.2,24.6C266.2,214.5,265.7,248.8,265.3,256z M265.2,147.5
		c-13.1-5.8-30.8-5.5-43.5,0.8c-0.4,0.2-0.8,0.3-1.2,0.3c-1,0-2-0.6-2.4-1.5c-0.6-1.3-0.1-3,1.2-3.6c14.1-7,33.5-7.3,48.1-0.9
		c1.4,0.6,2,2.2,1.4,3.6C268.2,147.5,266.6,148.1,265.2,147.5z M300.4,194.9c-2.3,13.5-12.9,23.6-18.6,28.2
		c-1.3-5.6-2.1-11.5-2.1-17.7c0-12.4,2.8-23.9,7.8-33.3c-6.9,10.2-11,23.8-11,38.8c0,4.9,0.5,9.7,1.4,14.2
		c-2.4-3.3-13.1-19.2-10.3-35.7c3.1-18.5,22.1-30.8,22.1-30.8S303.5,176.3,300.4,194.9z"/>
</g>
</svg>
