<?xml version="1.0" encoding="utf-8"?>
<!-- Generator: Adobe Illustrator 27.3.1, SVG Export Plug-In . SVG Version: 6.00 Build 0)  -->
<svg version="1.1" id="Capa_1" xmlns="http://www.w3.org/2000/svg" xmlns:xlink="http://www.w3.org/1999/xlink" x="0px" y="0px"
	 viewBox="0 0 500 500" style="enable-background:new 0 0 500 500;" xml:space="preserve">
<style type="text/css">
	.st0{fill:#B6B6B6;}
	.st1{fill:#DEDEDE;}
</style>
<g>
	<path class="st0" d="M433.5,169.6c-1.6-0.8-8.5-3.6-10.6-4.3c-17.6-6.4-48.5-10.2-67.3,23.6c-18.1,32.5-82.5,156.2-97.8,187.1
		c-6.9,14-8.2,13.8-15.6,0.1c-14.6-26.9-81.3-151.8-103-196.9c-2.1-4.3-9.6-17-0.7-32.8c10.1-17.9,25.9-44.9,32.9-56.7
		c8.8-14.8,14.6-16.3,25.3-16.3c18.6,0,59.7,0,89.1,0l51-65.1H163.2c-11,0-21.1,6-26.8,15.8L65.2,146.8c-3,5.2-4.5,11-4.5,16.8
		c0,6.2,1.7,12.5,5.2,17.9c0,0,139.9,265.4,158,296.1c2.8,4.8,10.8,11.3,17.8,13.4c1.3,0.4,2.7,0.6,4,0.9h0.1
		c1.4,0.2,2.8,0.3,4.2,0.3c5.7,0,11.6-1.6,16.7-5c0.3-0.3,0.7-0.5,1.1-0.8c3.6-2.6,6.6-5.7,8.6-9.4c8.9-16.2,159-297.8,159-297.8
		C438.3,174.7,438,171.8,433.5,169.6z"/>
	<path class="st1" d="M372,36.9c-1.8-3.3-7.6-13-7.6-13c-5.6-9.8-15.8-15.8-26.8-15.8c0,0-24,0-40.3,0c-8.4,0,25.1,8.2,13.3,27
		c-15.2,24.3-71,113.1-77.7,123.8c-18.3,30.6-3.2,54.9,9.4,69.2c1.4,1.7,6.6,7.2,8,8.4c3.8,3.4,6.4,2.5,9.3-2
		c4.6-7.4,13.2-20.8,20.6-32.7c20.4-33,76.2-123,89.4-144C375.2,49,376.6,45.5,372,36.9z"/>
</g>
</svg>
