<?xml version="1.0" encoding="utf-8"?>
<!-- Generator: Adobe Illustrator 27.3.1, SVG Export Plug-In . SVG Version: 6.00 Build 0)  -->
<svg version="1.1" id="Capa_1" xmlns="http://www.w3.org/2000/svg" xmlns:xlink="http://www.w3.org/1999/xlink" x="0px" y="0px"
	 viewBox="0 0 500 500" style="enable-background:new 0 0 500 500;" xml:space="preserve">
<style type="text/css">
	.st0{fill:#0047BA;}
	.st1{fill:#63B7E7;}
	.st2{fill:none;}
	.st3{clip-path:url(#SVGID_00000005257896359064626640000011568961671727675530_);}
</style>
<g>
	<path class="st0" d="M408.51,168.54L280.07,464.49c-4.11,9.42-7.81,16.59-12.07,21.56c-2.26,2.65-4.63,4.69-7.22,6.14
		c16.5-1.61,44.5-7.24,75.69-23.91c3.29-1.7,6.51-3.55,9.66-5.48l0.44-0.28c8.47-5.05,16.21-11.07,23.23-17.78
		c28.92-26.92,47.26-65.02,48.04-107.45l8-200.67C420.99,136.54,419.02,144.29,408.51,168.54"/>
	<path class="st0" d="M89.64,168.54l128.45,295.95c4.07,9.42,7.82,16.59,12.05,21.56c2.28,2.65,4.62,4.69,7.22,6.14
		c-16.48-1.61-44.47-7.24-75.68-23.91c-3.29-1.7-6.48-3.55-9.66-5.48l-0.44-0.28c-8.43-5.05-16.23-11.07-23.25-17.78
		c-28.89-26.92-47.24-65.02-48.03-107.45l-7.97-200.67C77.19,136.54,79.12,144.29,89.64,168.54"/>
	<path class="st1" d="M400.18,111.25c-9.32-16.74-30.75-55.25-44.62-80.01c-7.39-13.28-13.07-22.63-35.55-22.63
		c-38.05,0-113.19,0-143.72,0c-14.56,0-22.44,2.06-34.43,23.09c-9.49,16.58-31,54.85-44.7,80.08c-12.18,22.41-1.8,40.29,1,46.48
		c4.8,10.51,130.96,300.41,130.96,300.41c3.68,8.45,6.93,14.77,10.36,18.84c2.75,3.22,5.67,4.87,9.2,4.88
		c3.57-0.01,6.46-1.66,9.22-4.88c3.44-4.06,6.69-10.39,10.34-18.84c0,0,125.04-285.48,131.95-299.76
		C403.36,152.37,413.33,135.06,400.18,111.25z"/>
	<path class="st2" d="M77.41,168.82c31.39,47.62,108.57,164.66,148.17,224.71c14.74,22.35,33.83,22.3,48.68-0.14
		c39.34-59.74,115.79-175.66,146.97-222.85c4.26-6.53,16.9-26.28,1.82-51.46C412.4,101.35,387.87,60.64,372,34.42
		c-8.43-14.05-14.96-23.95-40.67-23.95c-43.56,0-129.55,0-164.48,0c-16.68,0-25.67,2.21-39.4,24.45
		c-10.86,17.55-35.49,58.03-51.15,84.72C62.32,143.35,73.4,162.74,77.41,168.82z"/>
	<g>
		<defs>
			<path id="SVGID_1_" d="M400.18,111.25c-9.32-16.74-30.75-55.25-44.62-80.01c-7.39-13.28-13.07-22.63-35.55-22.63
				c-38.05,0-113.19,0-143.72,0c-14.56,0-22.44,2.06-34.43,23.09c-9.49,16.58-31,54.85-44.7,80.08c-12.18,22.41-1.8,40.29,1,46.48
				c4.8,10.51,130.96,300.41,130.96,300.41c3.68,8.45,6.93,14.77,10.36,18.84c2.75,3.22,5.67,4.87,9.2,4.88
				c3.57-0.01,6.46-1.66,9.22-4.88c3.44-4.06,6.69-10.39,10.34-18.84c0,0,125.04-285.48,131.95-299.76
				C403.36,152.37,413.33,135.06,400.18,111.25z"/>
		</defs>
		<clipPath id="SVGID_00000059996155862464817240000001679802031860250003_">
			<use xlink:href="#SVGID_1_"  style="overflow:visible;"/>
		</clipPath>
		<g style="clip-path:url(#SVGID_00000059996155862464817240000001679802031860250003_);">
			<g>
				<path class="st0" d="M252.15,227.5c-6.53-20.12-24.37-30.68-45.43-30.68h-7.33c-26.56,0-48.1,16.75-48.1,48.39v215.7
					c39.7,0,52.47,0,73.43,0V276.33C224.72,253.75,235.08,236.25,252.15,227.5z"/>
				<path class="st0" d="M285.65,206.85c1.46-0.02,2.91-0.11,4.33-0.23c4.68,0.41,21.46,2.88,26.06,17.85
					c0.72,2.33,3.05-18.03-1-26.82c7.36-5.44,11.88-12.84,11.78-20.91c-0.21-16.27-18.97-29.17-41.91-28.81
					c-22.94,0.36-41.37,13.84-41.16,30.11C243.96,194.32,262.72,207.21,285.65,206.85z"/>
				<path class="st0" d="M286.76,227.93h-7.35c-26.56,0-48.1,16.75-48.1,48.39v217.7c45.3,0,48.45-54.66,103.54-54.66V276.33
					C334.85,244.68,313.32,227.93,286.76,227.93z"/>
				<path class="st0" d="M171.1,166.54c-4.05,8.79-1.73,29.15-1.01,26.81c4.59-14.96,21.36-17.44,26.05-17.85
					c1.43,0.13,2.87,0.21,4.34,0.23c22.93,0.36,41.69-12.53,41.9-28.8c0.2-16.27-18.23-29.76-41.17-30.11
					c-22.94-0.36-41.7,12.53-41.9,28.8C159.22,153.72,163.72,161.1,171.1,166.54z"/>
				<path class="st0" d="M260.72,113.74c-4.05,8.78-1.73,29.14-1,26.81c4.59-14.96,21.36-17.45,26.05-17.84
					c1.43,0.12,2.87,0.2,4.34,0.22c22.93,0.36,41.69-12.53,41.91-28.8c0.2-16.27-18.24-29.75-41.17-30.11
					c-22.94-0.36-41.71,12.53-41.91,28.81C248.84,100.9,253.35,108.3,260.72,113.74z"/>
			</g>
			<g>
				<path class="st1" d="M293.74,176.41c0,2.78-2.24,5.02-5.01,5.02c-2.77,0-5.01-2.24-5.01-5.02c0-2.77,2.24-5.01,5.01-5.01
					C291.5,171.41,293.74,173.65,293.74,176.41z"/>
				<g>
					<path class="st1" d="M278.83,176.41c0,2.78-2.25,5.02-5.01,5.02c-2.77,0-5.02-2.24-5.02-5.02c0-2.77,2.26-5.01,5.02-5.01
						C276.58,171.41,278.83,173.65,278.83,176.41z"/>
					<path class="st1" d="M308.67,176.41c0,2.78-2.24,5.02-5.02,5.02c-2.76,0-5.01-2.24-5.01-5.02c0-2.77,2.24-5.01,5.01-5.01
						C306.43,171.41,308.67,173.65,308.67,176.41z"/>
				</g>
			</g>
		</g>
	</g>
</g>
</svg>
