<?xml version="1.0" encoding="utf-8"?>
<!-- Generator: Adobe Illustrator 27.3.1, SVG Export Plug-In . SVG Version: 6.00 Build 0)  -->
<svg version="1.1" id="Capa_1" xmlns="http://www.w3.org/2000/svg" xmlns:xlink="http://www.w3.org/1999/xlink" x="0px" y="0px"
	 viewBox="0 0 500 500" style="enable-background:new 0 0 500 500;" xml:space="preserve">
<style type="text/css">
	.st0{fill:#888888;}
	.st1{fill:#EDEDED;}
	.st2{fill:none;}
	.st3{clip-path:url(#SVGID_00000034771710257999032810000003024144484025702564_);}
</style>
<g>
	<path class="st0" d="M408.5,168.5l-128.4,296c-4.1,9.4-7.8,16.6-12.1,21.6c-2.3,2.6-4.6,4.7-7.2,6.1c16.5-1.6,44.5-7.2,75.7-23.9
		c3.3-1.7,6.5-3.5,9.7-5.5l0.4-0.3c8.5-5,16.2-11.1,23.2-17.8c28.9-26.9,47.3-65,48-107.5l8-200.7C421,136.5,419,144.3,408.5,168.5"
		/>
	<path class="st0" d="M89.6,168.5l128.4,296c4.1,9.4,7.8,16.6,12.1,21.6c2.3,2.6,4.6,4.7,7.2,6.1c-16.5-1.6-44.5-7.2-75.7-23.9
		c-3.3-1.7-6.5-3.5-9.7-5.5l-0.4-0.3c-8.4-5-16.2-11.1-23.2-17.8c-28.9-26.9-47.2-65-48-107.5l-8-200.7
		C77.2,136.5,79.1,144.3,89.6,168.5"/>
	<path class="st1" d="M400.2,111.2c-9.3-16.7-30.8-55.2-44.6-80C348.2,18,342.5,8.6,320,8.6c-38,0-113.2,0-143.7,0
		c-14.6,0-22.4,2.1-34.4,23.1c-9.5,16.6-31,54.8-44.7,80.1c-12.2,22.4-1.8,40.3,1,46.5c4.8,10.5,131,300.4,131,300.4
		c3.7,8.5,6.9,14.8,10.4,18.8c2.8,3.2,5.7,4.9,9.2,4.9c3.6,0,6.5-1.7,9.2-4.9c3.4-4.1,6.7-10.4,10.3-18.8c0,0,125-285.5,131.9-299.8
		C403.4,152.4,413.3,135.1,400.2,111.2z"/>
	<path class="st2" d="M77.4,168.8c31.4,47.6,108.6,164.7,148.2,224.7c14.7,22.4,33.8,22.3,48.7-0.1c39.3-59.7,115.8-175.7,147-222.9
		c4.3-6.5,16.9-26.3,1.8-51.5c-10.7-17.7-35.2-58.4-51.1-84.7c-8.4-14-15-24-40.7-24c-43.6,0-129.6,0-164.5,0
		c-16.7,0-25.7,2.2-39.4,24.5c-10.9,17.5-35.5,58-51.2,84.7C62.3,143.4,73.4,162.7,77.4,168.8z"/>
	<g>
		<g>
			<defs>
				<path id="SVGID_1_" d="M400.2,111.2c-9.3-16.7-30.8-55.2-44.6-80C348.2,18,342.5,8.6,320,8.6c-38,0-113.2,0-143.7,0
					c-14.6,0-22.4,2.1-34.4,23.1c-9.5,16.6-31,54.8-44.7,80.1c-12.2,22.4-1.8,40.3,1,46.5c4.8,10.5,131,300.4,131,300.4
					c3.7,8.5,6.9,14.8,10.4,18.8c2.8,3.2,5.7,4.9,9.2,4.9c3.6,0,6.5-1.7,9.2-4.9c3.4-4.1,6.7-10.4,10.3-18.8
					c0,0,125-285.5,131.9-299.8C403.4,152.4,413.3,135.1,400.2,111.2z"/>
			</defs>
			<clipPath id="SVGID_00000141426154106907841430000009620849804097480098_">
				<use xlink:href="#SVGID_1_"  style="overflow:visible;"/>
			</clipPath>
			<g style="clip-path:url(#SVGID_00000141426154106907841430000009620849804097480098_);">
				<g>
					<path class="st0" d="M252.1,227.5c-6.5-20.1-24.4-30.7-45.4-30.7h-7.3c-26.6,0-48.1,16.8-48.1,48.4v215.7c39.7,0,52.5,0,73.4,0
						V276.3C224.7,253.8,235.1,236.2,252.1,227.5z"/>
					<path class="st0" d="M285.6,206.9c1.5,0,2.9-0.1,4.3-0.2c4.7,0.4,21.5,2.9,26.1,17.9c0.7,2.3,3-18-1-26.8
						c7.4-5.4,11.9-12.8,11.8-20.9c-0.2-16.3-19-29.2-41.9-28.8s-41.4,13.8-41.2,30.1C244,194.3,262.7,207.2,285.6,206.9z"/>
					<path class="st0" d="M286.8,227.9h-7.4c-26.6,0-48.1,16.8-48.1,48.4V494c45.3,0,48.5-54.7,103.5-54.7v-163
						C334.9,244.7,313.3,227.9,286.8,227.9z"/>
					<path class="st0" d="M171.1,166.5c-4.1,8.8-1.7,29.1-1,26.8c4.6-15,21.4-17.4,26.1-17.9c1.4,0.1,2.9,0.2,4.3,0.2
						c22.9,0.4,41.7-12.5,41.9-28.8c0.2-16.3-18.2-29.8-41.2-30.1c-22.9-0.4-41.7,12.5-41.9,28.8
						C159.2,153.7,163.7,161.1,171.1,166.5z"/>
					<path class="st0" d="M260.7,113.7c-4,8.8-1.7,29.1-1,26.8c4.6-15,21.4-17.4,26-17.8c1.4,0.1,2.9,0.2,4.3,0.2
						c22.9,0.4,41.7-12.5,41.9-28.8c0.2-16.3-18.2-29.8-41.2-30.1c-22.9-0.4-41.7,12.5-41.9,28.8
						C248.8,100.9,253.4,108.3,260.7,113.7z"/>
				</g>
				<g>
					<path class="st1" d="M293.7,176.4c0,2.8-2.2,5-5,5c-2.8,0-5-2.2-5-5c0-2.8,2.2-5,5-5C291.5,171.4,293.7,173.6,293.7,176.4z"/>
					<g>
						<path class="st1" d="M278.8,176.4c0,2.8-2.2,5-5,5c-2.8,0-5-2.2-5-5c0-2.8,2.3-5,5-5C276.6,171.4,278.8,173.6,278.8,176.4z"/>
						<path class="st1" d="M308.7,176.4c0,2.8-2.2,5-5,5c-2.8,0-5-2.2-5-5c0-2.8,2.2-5,5-5C306.4,171.4,308.7,173.6,308.7,176.4z"/>
					</g>
				</g>
			</g>
		</g>
	</g>
</g>
</svg>
