<?xml version="1.0" encoding="utf-8"?>
<!-- Generator: Adobe Illustrator 27.3.1, SVG Export Plug-In . SVG Version: 6.00 Build 0)  -->
<svg version="1.1" id="Capa_1" xmlns="http://www.w3.org/2000/svg" xmlns:xlink="http://www.w3.org/1999/xlink" x="0px" y="0px"
	 viewBox="0 0 500 500" style="enable-background:new 0 0 500 500;" xml:space="preserve">
<style type="text/css">
	.st0{fill:#A12D6D;}
	.st1{fill:#E94692;}
	.st2{fill:none;}
	.st3{fill:#FFFFFF;}
</style>
<g>
	<g>
		<path class="st0" d="M409,168.52L280.56,464.48c-4.11,9.42-7.81,16.6-12.07,21.57c-2.26,2.65-4.63,4.68-7.23,6.14
			c16.5-1.61,44.5-7.24,75.69-23.91c3.29-1.71,6.5-3.55,9.66-5.48l0.44-0.28c8.46-5.05,16.21-11.08,23.23-17.79
			c28.92-26.93,47.26-65.02,48.04-107.45l8-200.67C421.48,136.54,419.51,144.29,409,168.52"/>
		<path class="st0" d="M90.13,168.52l128.45,295.96c4.07,9.42,7.82,16.6,12.05,21.57c2.28,2.65,4.62,4.68,7.22,6.14
			c-16.48-1.61-44.47-7.24-75.68-23.91c-3.29-1.71-6.48-3.55-9.66-5.48l-0.44-0.28c-8.43-5.05-16.23-11.08-23.25-17.79
			c-28.89-26.93-47.24-65.02-48.03-107.45l-7.96-200.67C77.68,136.54,79.61,144.29,90.13,168.52"/>
		<path class="st1" d="M400.67,111.25c-9.32-16.75-30.75-55.24-44.62-80.01c-7.39-13.29-13.06-22.62-35.55-22.62
			c-38.06,0-113.19,0-143.72,0c-14.56,0-22.44,2.07-34.43,23.09c-9.49,16.58-31,54.84-44.69,80.07c-12.18,22.41-1.8,40.3,1,46.49
			c4.8,10.51,130.96,300.41,130.96,300.41c3.68,8.45,6.92,14.77,10.36,18.83c2.75,3.22,5.67,4.86,9.19,4.88
			c3.57-0.02,6.47-1.66,9.22-4.88c3.44-4.07,6.69-10.39,10.35-18.83c0,0,125.05-285.49,131.95-299.75
			C403.85,152.37,413.82,135.05,400.67,111.25z"/>
	</g>
	<path class="st2" d="M244.51,209.36c-30.62,0-58.76-6.73-81.01-17.99c-1.28,5.8-1.98,11.82-1.98,17.99c0,45.84,37.15,83,82.99,83
		c45.84,0,82.99-37.16,82.99-83c0-6.18-0.7-12.19-1.98-17.99C303.28,202.62,275.14,209.36,244.51,209.36z"/>
	<g>
		<g>
			<path class="st3" d="M272.3,278.12c39.78-10.5,67.57-46.6,67.57-87.8c0-50.07-40.73-90.8-90.8-90.8
				c-50.07,0-90.79,40.73-90.79,90.8c0,12.62,2.54,24.83,7.54,36.29"/>
		</g>
		<g>
			<path class="st0" d="M274.14,292.37c-3.21,0-6.15-2.15-7-5.4c-1.03-3.87,1.28-7.84,5.16-8.86c39.78-10.5,67.57-46.6,67.57-87.8
				c0-50.07-40.73-90.8-90.8-90.8c-50.07,0-90.79,40.73-90.79,90.8c0,12.62,2.54,24.83,7.54,36.29c1.6,3.67-0.07,7.94-3.74,9.54
				c-3.67,1.61-7.94-0.07-9.54-3.74c-5.81-13.31-8.75-27.47-8.75-42.09c0-58.05,47.23-105.29,105.29-105.29
				c58.06,0,105.29,47.24,105.29,105.29c0,47.78-32.22,89.65-78.37,101.82C275.37,292.29,274.76,292.37,274.14,292.37z"/>
		</g>
		<g>
			<path class="st0" d="M159.18,229.5c8-2.11,16.41-3.23,25.07-3.23c40.22,0,74.78,24.22,89.9,58.85L159.18,229.5z"/>
			<path class="st0" d="M274.14,292.36c-1.07,0-2.15-0.23-3.16-0.72l-114.97-55.62c-2.73-1.32-4.35-4.2-4.06-7.22
				c0.29-3.02,2.43-5.53,5.36-6.31c8.75-2.3,17.81-3.47,26.93-3.47c41.72,0,79.48,24.61,96.35,62.75c0.52,1,0.82,2.14,0.82,3.35
				c0,3.98-3.21,7.22-7.19,7.25C274.2,292.36,274.17,292.36,274.14,292.36z M184.11,233.51l71.46,34.57
				c-16.97-21.51-43.09-34.57-71.32-34.57C184.2,233.51,184.16,233.51,184.11,233.51z"/>
		</g>
		<g>
			<path class="st0" d="M249.07,219.38c-38.33,0-68.55-33.58-69.82-35.01c-1.9-2.13-1.9-5.35,0-7.48
				c1.27-1.43,31.49-35.01,69.82-35.01c38.33,0,68.55,33.58,69.82,35.01c1.9,2.13,1.9,5.35,0,7.48
				C317.62,185.8,287.4,219.38,249.07,219.38z M191.37,180.62c8.66,8.28,31.54,27.49,57.7,27.49c26.16,0,49.02-19.18,57.69-27.48
				c-8.67-8.3-31.54-27.48-57.69-27.48C222.83,153.14,200.02,172.32,191.37,180.62z"/>
		</g>
		<g>
			<path class="st0" d="M278,173.92c0,15.97-12.96,28.93-28.93,28.93c-15.98,0-28.93-12.96-28.93-28.93s12.95-28.93,28.93-28.93
				C265.04,144.99,278,157.94,278,173.92z"/>
		</g>
		<g>
			<path class="st3" d="M252.5,168.81c0,5.75-4.66,10.41-10.41,10.41c-5.76,0-10.42-4.67-10.42-10.41c0-5.75,4.66-10.42,10.42-10.42
				C247.84,158.4,252.5,163.06,252.5,168.81z"/>
		</g>
	</g>
</g>
</svg>
