<?xml version="1.0" encoding="utf-8"?>
<!-- Generator: Adobe Illustrator 27.3.1, SVG Export Plug-In . SVG Version: 6.00 Build 0)  -->
<svg version="1.1" id="Capa_1" xmlns="http://www.w3.org/2000/svg" xmlns:xlink="http://www.w3.org/1999/xlink" x="0px" y="0px"
	 viewBox="0 0 500 500" style="enable-background:new 0 0 500 500;" xml:space="preserve">
<style type="text/css">
	.st0{fill:#BABABA;}
	.st1{fill:#E3E3E3;}
	.st2{fill:none;}
	.st3{fill:#FFFFFF;}
</style>
<g>
	<g>
		<path class="st0" d="M409,168.5l-128.4,296c-4.1,9.4-7.8,16.6-12.1,21.6c-2.3,2.6-4.6,4.7-7.2,6.1c16.5-1.6,44.5-7.2,75.7-23.9
			c3.3-1.7,6.5-3.5,9.7-5.5l0.4-0.3c8.5-5,16.2-11.1,23.2-17.8c28.9-26.9,47.3-65,48-107.4l8-200.7
			C421.5,136.5,419.5,144.3,409,168.5"/>
		<path class="st0" d="M90.1,168.5l128.4,296c4.1,9.4,7.8,16.6,12.1,21.6c2.3,2.6,4.6,4.7,7.2,6.1c-16.5-1.6-44.5-7.2-75.7-23.9
			c-3.3-1.7-6.5-3.5-9.7-5.5l-0.4-0.3c-8.4-5-16.2-11.1-23.2-17.8c-28.9-26.9-47.2-65-48-107.5l-8-200.7
			C77.7,136.5,79.6,144.3,90.1,168.5"/>
		<path class="st1" d="M400.7,111.2c-9.3-16.8-30.8-55.2-44.6-80C348.7,17.9,343,8.6,320.5,8.6c-38.1,0-113.2,0-143.7,0
			c-14.6,0-22.4,2.1-34.4,23.1c-9.5,16.6-31,54.8-44.7,80.1c-12.2,22.4-1.8,40.3,1,46.5c4.8,10.5,131,300.4,131,300.4
			c3.7,8.5,6.9,14.8,10.4,18.8c2.8,3.2,5.7,4.9,9.2,4.9c3.6,0,6.5-1.7,9.2-4.9c3.4-4.1,6.7-10.4,10.4-18.8c0,0,125-285.5,132-299.8
			C403.9,152.4,413.8,135.1,400.7,111.2z"/>
	</g>
	<path class="st2" d="M244.5,209.4c-30.6,0-58.8-6.7-81-18c-1.3,5.8-2,11.8-2,18c0,45.8,37.2,83,83,83s83-37.2,83-83
		c0-6.2-0.7-12.2-2-18C303.3,202.6,275.1,209.4,244.5,209.4z"/>
	<g>
		<g>
			<path class="st3" d="M272.3,278.1c39.8-10.5,67.6-46.6,67.6-87.8c0-50.1-40.7-90.8-90.8-90.8s-90.8,40.7-90.8,90.8
				c0,12.6,2.5,24.8,7.5,36.3"/>
		</g>
		<g>
			<path class="st0" d="M274.1,292.4c-3.2,0-6.1-2.1-7-5.4c-1-3.9,1.3-7.8,5.2-8.9c39.8-10.5,67.6-46.6,67.6-87.8
				c0-50.1-40.7-90.8-90.8-90.8s-90.8,40.7-90.8,90.8c0,12.6,2.5,24.8,7.5,36.3c1.6,3.7-0.1,7.9-3.7,9.5c-3.7,1.6-7.9-0.1-9.5-3.7
				c-5.8-13.3-8.8-27.5-8.8-42.1C143.8,132.3,191,85,249.1,85s105.3,47.2,105.3,105.3c0,47.8-32.2,89.6-78.4,101.8
				C275.4,292.3,274.8,292.4,274.1,292.4z"/>
		</g>
		<g>
			<path class="st0" d="M159.2,229.5c8-2.1,16.4-3.2,25.1-3.2c40.2,0,74.8,24.2,89.9,58.8L159.2,229.5z"/>
			<path class="st0" d="M274.1,292.4c-1.1,0-2.1-0.2-3.2-0.7L156,236c-2.7-1.3-4.4-4.2-4.1-7.2c0.3-3,2.4-5.5,5.4-6.3
				c8.8-2.3,17.8-3.5,26.9-3.5c41.7,0,79.5,24.6,96.4,62.8c0.5,1,0.8,2.1,0.8,3.4C281.4,289.1,278.2,292.3,274.1,292.4
				C274.2,292.4,274.2,292.4,274.1,292.4z M184.1,233.5l71.5,34.6c-17-21.5-43.1-34.6-71.3-34.6
				C184.2,233.5,184.2,233.5,184.1,233.5z"/>
		</g>
		<g>
			<path class="st0" d="M249.1,219.4c-38.3,0-68.6-33.6-69.8-35c-1.9-2.1-1.9-5.4,0-7.5c1.3-1.4,31.5-35,69.8-35s68.5,33.6,69.8,35
				c1.9,2.1,1.9,5.4,0,7.5C317.6,185.8,287.4,219.4,249.1,219.4z M191.4,180.6c8.7,8.3,31.5,27.5,57.7,27.5s49-19.2,57.7-27.5
				c-8.7-8.3-31.5-27.5-57.7-27.5C222.8,153.1,200,172.3,191.4,180.6z"/>
		</g>
		<g>
			<path class="st0" d="M278,173.9c0,16-13,28.9-28.9,28.9c-16,0-28.9-13-28.9-28.9s12.9-28.9,28.9-28.9
				C265,145,278,157.9,278,173.9z"/>
		</g>
		<g>
			<path class="st3" d="M252.5,168.8c0,5.8-4.7,10.4-10.4,10.4c-5.8,0-10.4-4.7-10.4-10.4c0-5.8,4.7-10.4,10.4-10.4
				C247.8,158.4,252.5,163.1,252.5,168.8z"/>
		</g>
	</g>
</g>
</svg>
