<?xml version="1.0" encoding="utf-8"?>
<!-- Generator: Adobe Illustrator 27.3.1, SVG Export Plug-In . SVG Version: 6.00 Build 0)  -->
<svg version="1.1" id="Capa_1" xmlns="http://www.w3.org/2000/svg" xmlns:xlink="http://www.w3.org/1999/xlink" x="0px" y="0px"
	 viewBox="0 0 500 500" style="enable-background:new 0 0 500 500;" xml:space="preserve">
<style type="text/css">
	.st0{fill:#1E4421;}
	.st1{fill:#BCD89C;}
	.st2{clip-path:url(#SVGID_00000072989395836161361850000009435649079452255902_);}
</style>
<g>
	<g>
		<path class="st0" d="M409,168.52L280.56,464.48c-4.11,9.42-7.81,16.59-12.07,21.57c-2.26,2.65-4.63,4.68-7.22,6.14
			c16.49-1.61,44.5-7.24,75.69-23.91c3.29-1.71,6.51-3.55,9.66-5.48l0.44-0.28c8.47-5.05,16.21-11.08,23.23-17.78
			c28.92-26.93,47.26-65.02,48.04-107.45l8-200.67C421.48,136.54,419.51,144.29,409,168.52"/>
		<path class="st0" d="M90.13,168.52l128.45,295.96c4.07,9.42,7.82,16.59,12.05,21.57c2.28,2.65,4.62,4.68,7.22,6.14
			c-16.48-1.61-44.47-7.24-75.68-23.91c-3.29-1.71-6.48-3.55-9.66-5.48l-0.44-0.28c-8.43-5.05-16.23-11.08-23.25-17.78
			c-28.89-26.93-47.24-65.02-48.03-107.45l-7.96-200.67C77.68,136.54,79.61,144.29,90.13,168.52"/>
		<path class="st1" d="M400.67,111.25c-9.32-16.75-30.75-55.24-44.62-80.01c-7.39-13.29-13.06-22.62-35.55-22.62
			c-38.05,0-113.19,0-143.72,0c-14.56,0-22.44,2.07-34.43,23.09c-9.49,16.58-31,54.84-44.69,80.07c-12.18,22.41-1.8,40.3,1,46.49
			c4.8,10.51,130.96,300.41,130.96,300.41c3.68,8.45,6.93,14.77,10.36,18.83c2.75,3.22,5.67,4.86,9.2,4.88
			c3.57-0.02,6.47-1.66,9.22-4.88c3.44-4.07,6.69-10.39,10.35-18.83c0,0,125.04-285.49,131.95-299.76
			C403.85,152.37,413.82,135.05,400.67,111.25z"/>
	</g>
	<g>
		<defs>
			<path id="SVGID_1_" d="M400.67,111.25c-9.32-16.75-30.75-55.24-44.62-80.01c-7.39-13.29-13.06-22.62-35.55-22.62
				c-38.05,0-113.19,0-143.72,0c-14.56,0-22.44,2.07-34.43,23.09c-9.49,16.58-31,54.84-44.69,80.07c-12.18,22.41-1.8,40.3,1,46.49
				c4.8,10.51,130.96,300.41,130.96,300.41c3.68,8.45,6.93,14.77,10.36,18.83c2.75,3.22,5.67,4.86,9.2,4.88
				c3.57-0.02,6.47-1.66,9.22-4.88c3.44-4.07,6.69-10.39,10.35-18.83c0,0,125.04-285.49,131.95-299.76
				C403.85,152.37,413.82,135.05,400.67,111.25z"/>
		</defs>
		<clipPath id="SVGID_00000013902374264423856640000000618726321346666171_">
			<use xlink:href="#SVGID_1_"  style="overflow:visible;"/>
		</clipPath>
		<g style="clip-path:url(#SVGID_00000013902374264423856640000000618726321346666171_);">
			<path class="st0" d="M331.13,187.69c0,6.77-5.49,12.25-12.25,12.25H177.21c-6.77,0-12.25-5.48-12.25-12.25v-77.85
				c0-6.76,5.48-12.25,12.25-12.25h141.67c6.76,0,12.25,5.48,12.25,12.25V187.69z"/>
			<g>
				<path class="st1" d="M296.56,151.48c0,10.12-8.2,18.32-18.33,18.32c-10.11,0-18.32-8.2-18.32-18.32
					c0-10.12,8.21-18.33,18.32-18.33C288.36,133.15,296.56,141.36,296.56,151.48z"/>
				<path class="st1" d="M308.44,266.71c0,14.83-12.01,26.85-26.83,26.85h-6.75c-14.82,0-26.82-12.03-26.82-26.85v-61.91
					c0-14.82,12.01-26.84,26.82-26.84h6.75c14.81,0,26.83,12.02,26.83,26.84V266.71z"/>
			</g>
			<g>
				<path class="st0" d="M218.18,384.02c0,14.68-11.89,26.59-26.57,26.59h-6.69c-14.67,0-26.57-11.91-26.57-26.59v-61.32
					c0-14.69,11.9-26.59,26.57-26.59h6.69c14.67,0,26.57,11.9,26.57,26.59V384.02z"/>
				<path class="st0" d="M278.01,384.02c0,14.68-11.9,26.59-26.57,26.59h-6.69c-14.67,0-26.57-11.91-26.57-26.59v-61.32
					c0-14.69,11.9-26.59,26.57-26.59h6.69c14.67,0,26.57,11.9,26.57,26.59V384.02z"/>
				<path class="st0" d="M324.1,435.89c0,16.69-30.24,45.62-67.52,45.62h-16.99c-37.27,0-67.5-28.93-67.5-45.62v-69.64
					c0-16.68,30.23-30.21,67.5-30.21h16.99c37.28,0,67.52,13.53,67.52,30.21V435.89z"/>
				<path class="st0" d="M337.82,384.02c0,14.68-11.9,26.59-26.57,26.59h-6.69c-14.67,0-26.56-11.91-26.56-26.59v-61.32
					c0-14.69,11.89-26.59,26.56-26.59h6.69c14.67,0,26.57,11.9,26.57,26.59V384.02z"/>
				<path class="st0" d="M206.42,263.09c0,10.03-8.13,18.15-18.15,18.15c-10.02,0-18.15-8.12-18.15-18.15
					c0-10.02,8.13-18.15,18.15-18.15C198.29,244.95,206.42,253.07,206.42,263.09z"/>
				<path class="st0" d="M326.06,263.09c0,10.03-8.12,18.15-18.15,18.15s-18.15-8.12-18.15-18.15c0-10.02,8.13-18.15,18.15-18.15
					S326.06,253.07,326.06,263.09z"/>
				<path class="st0" d="M266.24,263.09c0,10.03-8.13,18.15-18.15,18.15c-10.02,0-18.15-8.12-18.15-18.15
					c0-10.02,8.13-18.15,18.15-18.15C258.11,244.95,266.24,253.07,266.24,263.09z"/>
			</g>
		</g>
	</g>
</g>
</svg>
