<?xml version="1.0" encoding="utf-8"?>
<!-- Generator: Adobe Illustrator 27.3.1, SVG Export Plug-In . SVG Version: 6.00 Build 0)  -->
<svg version="1.1" id="Capa_1" xmlns="http://www.w3.org/2000/svg" xmlns:xlink="http://www.w3.org/1999/xlink" x="0px" y="0px"
	 viewBox="0 0 500 500" style="enable-background:new 0 0 500 500;" xml:space="preserve">
<style type="text/css">
	.st0{fill:#636363;}
	.st1{fill:#F7F7F7;}
	.st2{clip-path:url(#SVGID_00000066491444002937639650000000621517259284169905_);}
</style>
<g>
	<g>
		<path class="st0" d="M409,168.5l-128.4,296c-4.1,9.4-7.8,16.6-12.1,21.6c-2.3,2.6-4.6,4.7-7.2,6.1c16.5-1.6,44.5-7.2,75.7-23.9
			c3.3-1.7,6.5-3.5,9.7-5.5l0.4-0.3c8.5-5,16.2-11.1,23.2-17.8c28.9-26.9,47.3-65,48-107.4l8-200.7
			C421.5,136.5,419.5,144.3,409,168.5"/>
		<path class="st0" d="M90.1,168.5l128.4,296c4.1,9.4,7.8,16.6,12.1,21.6c2.3,2.6,4.6,4.7,7.2,6.1c-16.5-1.6-44.5-7.2-75.7-23.9
			c-3.3-1.7-6.5-3.5-9.7-5.5l-0.4-0.3c-8.4-5-16.2-11.1-23.2-17.8c-28.9-26.9-47.2-65-48-107.5l-8-200.7
			C77.7,136.5,79.6,144.3,90.1,168.5"/>
		<path class="st1" d="M400.7,111.2c-9.3-16.8-30.8-55.2-44.6-80C348.7,17.9,343,8.6,320.5,8.6c-38,0-113.2,0-143.7,0
			c-14.6,0-22.4,2.1-34.4,23.1c-9.5,16.6-31,54.8-44.7,80.1c-12.2,22.4-1.8,40.3,1,46.5c4.8,10.5,131,300.4,131,300.4
			c3.7,8.5,6.9,14.8,10.4,18.8c2.8,3.2,5.7,4.9,9.2,4.9c3.6,0,6.5-1.7,9.2-4.9c3.4-4.1,6.7-10.4,10.4-18.8
			c0,0,125-285.5,131.9-299.8C403.9,152.4,413.8,135.1,400.7,111.2z"/>
	</g>
	<g>
		<g>
			<defs>
				<path id="SVGID_1_" d="M400.7,111.2c-9.3-16.8-30.8-55.2-44.6-80C348.7,17.9,343,8.6,320.5,8.6c-38,0-113.2,0-143.7,0
					c-14.6,0-22.4,2.1-34.4,23.1c-9.5,16.6-31,54.8-44.7,80.1c-12.2,22.4-1.8,40.3,1,46.5c4.8,10.5,131,300.4,131,300.4
					c3.7,8.5,6.9,14.8,10.4,18.8c2.8,3.2,5.7,4.9,9.2,4.9c3.6,0,6.5-1.7,9.2-4.9c3.4-4.1,6.7-10.4,10.4-18.8
					c0,0,125-285.5,131.9-299.8C403.9,152.4,413.8,135.1,400.7,111.2z"/>
			</defs>
			<clipPath id="SVGID_00000113350894267099950350000018440366828965199274_">
				<use xlink:href="#SVGID_1_"  style="overflow:visible;"/>
			</clipPath>
			<g style="clip-path:url(#SVGID_00000113350894267099950350000018440366828965199274_);">
				<path class="st0" d="M331.1,187.7c0,6.8-5.5,12.2-12.2,12.2H177.2c-6.8,0-12.2-5.5-12.2-12.2v-77.8c0-6.8,5.5-12.2,12.2-12.2
					h141.7c6.8,0,12.2,5.5,12.2,12.2V187.7z"/>
				<g>
					<path class="st1" d="M296.6,151.5c0,10.1-8.2,18.3-18.3,18.3c-10.1,0-18.3-8.2-18.3-18.3c0-10.1,8.2-18.3,18.3-18.3
						C288.4,133.1,296.6,141.4,296.6,151.5z"/>
					<path class="st1" d="M308.4,266.7c0,14.8-12,26.9-26.8,26.9h-6.8c-14.8,0-26.8-12-26.8-26.9v-61.9c0-14.8,12-26.8,26.8-26.8
						h6.8c14.8,0,26.8,12,26.8,26.8V266.7z"/>
				</g>
				<g>
					<path class="st0" d="M218.2,384c0,14.7-11.9,26.6-26.6,26.6h-6.7c-14.7,0-26.6-11.9-26.6-26.6v-61.3
						c0-14.7,11.9-26.6,26.6-26.6h6.7c14.7,0,26.6,11.9,26.6,26.6V384z"/>
					<path class="st0" d="M278,384c0,14.7-11.9,26.6-26.6,26.6h-6.7c-14.7,0-26.6-11.9-26.6-26.6v-61.3c0-14.7,11.9-26.6,26.6-26.6
						h6.7c14.7,0,26.6,11.9,26.6,26.6V384z"/>
					<path class="st0" d="M324.1,435.9c0,16.7-30.2,45.6-67.5,45.6h-17c-37.3,0-67.5-28.9-67.5-45.6v-69.6
						c0-16.7,30.2-30.2,67.5-30.2h17c37.3,0,67.5,13.5,67.5,30.2V435.9z"/>
					<path class="st0" d="M337.8,384c0,14.7-11.9,26.6-26.6,26.6h-6.7c-14.7,0-26.6-11.9-26.6-26.6v-61.3
						c0-14.7,11.9-26.6,26.6-26.6h6.7c14.7,0,26.6,11.9,26.6,26.6V384z"/>
					<path class="st0" d="M206.4,263.1c0,10-8.1,18.1-18.1,18.1c-10,0-18.1-8.1-18.1-18.1c0-10,8.1-18.1,18.1-18.1
						C198.3,244.9,206.4,253.1,206.4,263.1z"/>
					<path class="st0" d="M326.1,263.1c0,10-8.1,18.1-18.1,18.1s-18.1-8.1-18.1-18.1c0-10,8.1-18.1,18.1-18.1
						S326.1,253.1,326.1,263.1z"/>
					<path class="st0" d="M266.2,263.1c0,10-8.1,18.1-18.1,18.1c-10,0-18.1-8.1-18.1-18.1c0-10,8.1-18.1,18.1-18.1
						C258.1,244.9,266.2,253.1,266.2,263.1z"/>
				</g>
			</g>
		</g>
	</g>
</g>
</svg>
