<?xml version="1.0" encoding="utf-8"?>
<!-- Generator: Adobe Illustrator 27.3.1, SVG Export Plug-In . SVG Version: 6.00 Build 0)  -->
<svg version="1.1" id="Capa_1" xmlns="http://www.w3.org/2000/svg" xmlns:xlink="http://www.w3.org/1999/xlink" x="0px" y="0px"
	 viewBox="0 0 500 500" style="enable-background:new 0 0 500 500;" xml:space="preserve">
<style type="text/css">
	.st0{fill:#FFDD09;}
	.st1{fill:#EE7E08;}
	.st2{clip-path:url(#SVGID_00000080177465968466843830000008662327112666181256_);}
	.st3{fill:#00953B;}
	.st4{clip-path:url(#SVGID_00000129200970076768316250000017508076913770799286_);}
</style>
<g>
	<g>
		<path class="st0" d="M400.19,111.25c-9.32-16.74-30.75-55.24-44.62-80.01c-7.39-13.29-13.06-22.63-35.55-22.63
			c-38.05,0-113.19,0-143.72,0c-14.56,0-22.44,2.07-34.43,23.09c-9.49,16.59-31,54.85-44.69,80.08c-12.18,22.41-1.8,40.3,1,46.48
			c4.8,10.52,130.96,300.41,130.96,300.41c3.68,8.45,6.93,14.77,10.36,18.83c2.75,3.21,5.67,4.86,9.2,4.88
			c3.57-0.02,6.46-1.66,9.22-4.88c3.44-4.07,6.69-10.39,10.34-18.83c0,0,125.05-285.49,131.95-299.76
			C403.37,152.38,413.34,135.06,400.19,111.25z"/>
		<path class="st1" d="M408.52,168.53L280.08,464.49c-4.11,9.42-7.81,16.59-12.07,21.57c-2.26,2.65-4.63,4.69-7.22,6.13
			c16.49-1.6,44.5-7.23,75.69-23.91c3.29-1.7,6.51-3.54,9.66-5.48l0.44-0.28c8.47-5.06,16.21-11.08,23.23-17.79
			c28.92-26.93,47.26-65.03,48.04-107.46l8-200.66C421,136.54,419.03,144.29,408.52,168.53"/>
		<path class="st1" d="M89.65,168.53L218.1,464.49c4.07,9.42,7.82,16.59,12.06,21.57c2.28,2.65,4.62,4.69,7.22,6.13
			c-16.48-1.6-44.47-7.23-75.68-23.91c-3.29-1.7-6.48-3.54-9.66-5.48l-0.44-0.28c-8.43-5.06-16.23-11.08-23.25-17.79
			C99.45,417.8,81.1,379.71,80.31,337.28l-7.96-200.66C77.2,136.54,79.13,144.29,89.65,168.53"/>
	</g>
	<g>
		<g>
			<path class="st1" d="M280.72,89.83h-66.14c-23.47,0-51.22,2.16-51.22,46.57v23.3c0,44.43,0,27.46,0,102.69h173.99
				c0-38.03,0-58.27,0-102.69v-23.3C337.36,91.99,303.58,89.83,280.72,89.83z"/>
			<path class="st0" d="M193.31,218.19c-5.4,0-9.77-4.37-9.77-9.76c0-5.4,4.38-9.78,9.77-9.78c5.4,0,9.78,4.38,9.78,9.78
				C203.1,213.82,198.71,218.19,193.31,218.19z"/>
			<path class="st0" d="M313.22,185.38H183.54c0-8.81,0-9.57,0-13.44c0-4.91,0-6.49,0-6.45c0-1.18,0-2.56,0-4.13V144.1
				c0-32.83,22.07-35.25,40.6-35.25h51.56c18.05,0,37.52,2.42,37.52,35.25C313.22,144.1,313.22,176.01,313.22,185.38z"/>
			<polygon class="st0" points="163.37,262.4 337.52,134.92 337.52,262.4 			"/>
			<g>
				<defs>
					<polygon id="SVGID_1_" points="163.37,262.4 337.52,134.92 337.52,262.4 					"/>
				</defs>
				<clipPath id="SVGID_00000111889200337624449620000003141856277050287240_">
					<use xlink:href="#SVGID_1_"  style="overflow:visible;"/>
				</clipPath>
				<g style="clip-path:url(#SVGID_00000111889200337624449620000003141856277050287240_);">
					<polygon class="st3" points="202.58,297.4 386.67,161.06 385.03,177.17 219.98,297.4 					"/>
					<polygon class="st3" points="198.64,349.44 389.29,208.27 389.29,224.94 218.37,349.44 					"/>
				</g>
			</g>
			<g>
				<defs>
					<polygon id="SVGID_00000019674129725173072830000000433892977747330210_" points="163.37,262.4 337.52,134.92 337.52,262.4 
											"/>
				</defs>
				<clipPath id="SVGID_00000130639241611122551720000006072665813019369620_">
					<use xlink:href="#SVGID_00000019674129725173072830000000433892977747330210_"  style="overflow:visible;"/>
				</clipPath>
				<g style="clip-path:url(#SVGID_00000130639241611122551720000006072665813019369620_);">
					<polygon class="st1" points="172.54,273.4 363.18,132.22 375.39,149.92 204.49,274.43 					"/>
					<polygon class="st1" points="200.29,319.36 390.94,178.17 377.88,163.6 206.98,288.1 					"/>
					<polygon class="st1" points="218.17,358.56 408.81,217.35 386.75,198.51 215.84,323.01 					"/>
				</g>
			</g>
		</g>
		<path class="st1" d="M220.96,289.11c0,8.07-7.37,14.6-16.46,14.6l0,0c-9.08,0-16.45-6.53-16.45-14.6v-18.63
			c19.84,0,18.68,0,32.91,0V289.11z"/>
		<path class="st1" d="M312.32,289.11c0,8.07-7.37,14.6-16.46,14.6l0,0c-9.09,0-16.45-6.53-16.45-14.6v-18.63
			c19.84,0,18.68,0,32.91,0V289.11z"/>
	</g>
</g>
</svg>
