<?xml version="1.0" encoding="utf-8"?>
<!-- Generator: Adobe Illustrator 27.3.1, SVG Export Plug-In . SVG Version: 6.00 Build 0)  -->
<svg version="1.1" id="Capa_1" xmlns="http://www.w3.org/2000/svg" xmlns:xlink="http://www.w3.org/1999/xlink" x="0px" y="0px"
	 viewBox="0 0 500 500" style="enable-background:new 0 0 500 500;" xml:space="preserve">
<style type="text/css">
	.st0{fill:#EEEEEE;}
	.st1{fill:#B1B1B1;}
	.st2{clip-path:url(#SVGID_00000173155555237502028910000011899966452198126472_);}
	.st3{fill:#7D7D7D;}
	.st4{clip-path:url(#SVGID_00000075162692802455799020000006134898392589694337_);}
</style>
<g>
	<g>
		<path class="st0" d="M400.2,111.2c-9.3-16.7-30.8-55.2-44.6-80C348.2,17.9,342.5,8.6,320,8.6c-38,0-113.2,0-143.7,0
			c-14.6,0-22.4,2.1-34.4,23.1c-9.5,16.6-31,54.8-44.7,80.1c-12.2,22.4-1.8,40.3,1,46.5c4.8,10.5,131,300.4,131,300.4
			c3.7,8.5,6.9,14.8,10.4,18.8c2.8,3.2,5.7,4.9,9.2,4.9c3.6,0,6.5-1.7,9.2-4.9c3.4-4.1,6.7-10.4,10.3-18.8c0,0,125-285.5,132-299.8
			C403.4,152.4,413.3,135.1,400.2,111.2z"/>
		<path class="st1" d="M408.5,168.5l-128.4,296c-4.1,9.4-7.8,16.6-12.1,21.6c-2.3,2.6-4.6,4.7-7.2,6.1c16.5-1.6,44.5-7.2,75.7-23.9
			c3.3-1.7,6.5-3.5,9.7-5.5l0.4-0.3c8.5-5.1,16.2-11.1,23.2-17.8c28.9-26.9,47.3-65,48-107.5l8-200.7
			C421,136.5,419,144.3,408.5,168.5"/>
		<path class="st1" d="M89.7,168.5l128.5,296c4.1,9.4,7.8,16.6,12.1,21.6c2.3,2.6,4.6,4.7,7.2,6.1c-16.5-1.6-44.5-7.2-75.7-23.9
			c-3.3-1.7-6.5-3.5-9.7-5.5l-0.4-0.3c-8.4-5.1-16.2-11.1-23.2-17.8c-28.9-26.9-47.3-65-48-107.4l-8-200.7
			C77.2,136.5,79.1,144.3,89.7,168.5"/>
	</g>
	<g>
		<g>
			<path class="st1" d="M280.7,89.8h-66.1c-23.5,0-51.2,2.2-51.2,46.6v23.3c0,44.4,0,27.5,0,102.7h174c0-38,0-58.3,0-102.7v-23.3
				C337.4,92,303.6,89.8,280.7,89.8z"/>
			<path class="st0" d="M193.3,218.2c-5.4,0-9.8-4.4-9.8-9.8c0-5.4,4.4-9.8,9.8-9.8c5.4,0,9.8,4.4,9.8,9.8
				C203.1,213.8,198.7,218.2,193.3,218.2z"/>
			<path class="st0" d="M313.2,185.4H183.5c0-8.8,0-9.6,0-13.4c0-4.9,0-6.5,0-6.4c0-1.2,0-2.6,0-4.1v-17.3
				c0-32.8,22.1-35.2,40.6-35.2h51.6c18,0,37.5,2.4,37.5,35.2C313.2,144.1,313.2,176,313.2,185.4z"/>
			<polygon class="st0" points="163.4,262.4 337.5,134.9 337.5,262.4 			"/>
			<g>
				<g>
					<defs>
						<polygon id="SVGID_1_" points="163.4,262.4 337.5,134.9 337.5,262.4 						"/>
					</defs>
					<clipPath id="SVGID_00000106851881968381940180000008690994181199141544_">
						<use xlink:href="#SVGID_1_"  style="overflow:visible;"/>
					</clipPath>
					<g style="clip-path:url(#SVGID_00000106851881968381940180000008690994181199141544_);">
						<polygon class="st3" points="202.6,297.4 386.7,161.1 385,177.2 220,297.4 						"/>
						<polygon class="st3" points="198.6,349.4 389.3,208.3 389.3,224.9 218.4,349.4 						"/>
					</g>
				</g>
			</g>
			<g>
				<g>
					<defs>
						<polygon id="SVGID_00000149366024575745220980000010028605567035108255_" points="163.4,262.4 337.5,134.9 337.5,262.4 						
							"/>
					</defs>
					<clipPath id="SVGID_00000083772503359710064130000011528086056691818923_">
						<use xlink:href="#SVGID_00000149366024575745220980000010028605567035108255_"  style="overflow:visible;"/>
					</clipPath>
					<g style="clip-path:url(#SVGID_00000083772503359710064130000011528086056691818923_);">
						<polygon class="st1" points="172.5,273.4 363.2,132.2 375.4,149.9 204.5,274.4 						"/>
						<polygon class="st1" points="200.3,319.4 390.9,178.2 377.9,163.6 207,288.1 						"/>
						<polygon class="st1" points="218.2,358.6 408.8,217.4 386.8,198.5 215.8,323 						"/>
					</g>
				</g>
			</g>
		</g>
		<path class="st1" d="M221,289.1c0,8.1-7.4,14.6-16.5,14.6l0,0c-9.1,0-16.4-6.5-16.4-14.6v-18.6c19.8,0,18.7,0,32.9,0V289.1z"/>
		<path class="st1" d="M312.3,289.1c0,8.1-7.4,14.6-16.5,14.6l0,0c-9.1,0-16.5-6.5-16.5-14.6v-18.6c19.8,0,18.7,0,32.9,0V289.1z"/>
	</g>
</g>
</svg>
