<?xml version="1.0" encoding="utf-8"?>
<!-- Generator: Adobe Illustrator 27.3.1, SVG Export Plug-In . SVG Version: 6.00 Build 0)  -->
<svg version="1.1" id="Capa_1" xmlns="http://www.w3.org/2000/svg" xmlns:xlink="http://www.w3.org/1999/xlink" x="0px" y="0px"
	 viewBox="0 0 500 500" style="enable-background:new 0 0 500 500;" xml:space="preserve">
<style type="text/css">
	.st0{fill:#594696;}
	.st1{fill:#BDB5DA;}
	.st2{fill:#594696;stroke:#594696;stroke-width:0.75;stroke-miterlimit:10;}
	.st3{fill:none;stroke:#BDB5DA;stroke-miterlimit:10;}
	.st4{fill:none;stroke:#594696;stroke-miterlimit:10;}
</style>
<g>
	<g>
		<path class="st0" d="M408.52,168.53L280.08,464.49c-4.11,9.42-7.81,16.59-12.07,21.57c-2.26,2.65-4.63,4.69-7.22,6.13
			c16.49-1.61,44.5-7.23,75.69-23.91c3.29-1.7,6.51-3.54,9.66-5.48l0.44-0.28c8.47-5.05,16.21-11.08,23.23-17.78
			c28.92-26.92,47.26-65.03,48.04-107.46l8-200.67C421,136.54,419.03,144.29,408.52,168.53"/>
		<path class="st0" d="M89.66,168.53L218.1,464.49c4.07,9.42,7.82,16.59,12.05,21.57c2.28,2.65,4.62,4.69,7.22,6.13
			c-16.48-1.61-44.47-7.23-75.68-23.91c-3.29-1.7-6.48-3.54-9.66-5.48l-0.44-0.28c-8.43-5.05-16.23-11.08-23.24-17.78
			c-28.89-26.92-47.24-65.03-48.03-107.46l-7.96-200.67C77.2,136.54,79.13,144.29,89.66,168.53"/>
		<path class="st1" d="M400.19,111.25c-9.32-16.74-30.75-55.24-44.62-80.01c-7.39-13.28-13.06-22.63-35.55-22.63
			c-38.05,0-113.19,0-143.72,0c-14.56,0-22.44,2.07-34.43,23.09c-9.5,16.58-31,54.85-44.7,80.08c-12.18,22.41-1.8,40.3,1,46.48
			c4.8,10.52,130.96,300.42,130.96,300.42c3.68,8.45,6.93,14.77,10.36,18.83c2.75,3.22,5.67,4.86,9.19,4.88
			c3.57-0.02,6.47-1.66,9.22-4.88c3.44-4.07,6.69-10.38,10.35-18.83c0,0,125.04-285.49,131.95-299.76
			C403.37,152.38,413.34,135.06,400.19,111.25z"/>
	</g>
	<g>
		<path class="st0" d="M177.32,173.71c0,0,4.86,66.06,6.35,88.09c1.18,17.65,7.05,17.65,16.18,17.65c27.13,0,83.89,0,106.63,0
			c10.72,0,15.33-4.95,17.55-12.66c6.11-21.19,18.23-63.16,23.14-80.18c0.92-3.23,1.72-12.9-14.6-12.9
			C293.26,173.71,177.32,173.71,177.32,173.71z"/>
		<path class="st2" d="M350.89,221.94"/>
		<g>
			<path class="st3" d="M221.41,279.44V145.21c0-16.31,13.22-29.54,29.53-29.54l0,0c16.31,0,29.52,13.23,29.52,29.54v134.4"/>
			<path class="st3" d="M242.44,279.6V151.05c0-16.31,13.21-29.51,29.52-29.51l0,0c16.32,0,29.52,13.21,29.52,29.51v128.4"/>
		</g>
		<g>
			<path class="st4" d="M221.41,173.71v-28.5c0-16.31,13.22-29.54,29.53-29.54l0,0c16.31,0,29.52,13.23,29.52,29.54v28.5"/>
			<path class="st4" d="M242.44,173.71v-22.66c0-16.31,13.21-29.51,29.52-29.51l0,0c16.32,0,29.52,13.21,29.52,29.51v22.66"/>
		</g>
		<path class="st2" d="M177.45,221.94"/>
		<path class="st0" d="M309.06,308.85c0,10.87-8.82,19.68-19.68,19.68c-10.87,0-19.68-8.82-19.68-19.68
			c0-10.86,8.81-19.68,19.68-19.68C300.24,289.17,309.06,297.98,309.06,308.85z"/>
		<path class="st0" d="M189.69,270.94h9.05h5.69c0,0-2.27-1.29-4.38-4.6c-1.57-2.45-3.05-6.01-3.46-10.98
			c-3.07-37.3-6.63-104.4-6.63-104.4c0-3.78-2.4-4.95-6.86-6.85l-44.03-19.19c-3.47-1.51-7.52,0.07-9.04,3.54
			c-1.51,3.48,0.08,7.52,3.55,9.03l42.66,20.34c0,0,4.13,57.74,8.13,97.67C185.38,265.69,189.69,270.94,189.69,270.94z"/>
		<path class="st0" d="M218.07,289.17c-10.86,0-19.68,8.82-19.68,19.68c0,10.87,8.82,19.68,19.68,19.68
			c10.87,0,19.67-8.82,19.67-19.68C237.74,297.98,228.94,289.17,218.07,289.17z"/>
	</g>
</g>
</svg>
