<?xml version="1.0" encoding="utf-8"?>
<!-- Generator: Adobe Illustrator 27.3.1, SVG Export Plug-In . SVG Version: 6.00 Build 0)  -->
<svg version="1.1" id="Capa_1" xmlns="http://www.w3.org/2000/svg" xmlns:xlink="http://www.w3.org/1999/xlink" x="0px" y="0px"
	 viewBox="0 0 500 500" style="enable-background:new 0 0 500 500;" xml:space="preserve">
<style type="text/css">
	.st0{fill:#888888;}
	.st1{fill:#EEEEEE;}
	.st2{fill:#888888;stroke:#888888;stroke-width:0.75;stroke-miterlimit:10;}
	.st3{fill:none;stroke:#EEEEEE;stroke-miterlimit:10;}
	.st4{fill:none;stroke:#888888;stroke-miterlimit:10;}
</style>
<g>
	<g>
		<path class="st0" d="M408.5,168.5l-128.4,296c-4.1,9.4-7.8,16.6-12.1,21.6c-2.3,2.6-4.6,4.7-7.2,6.1c16.5-1.6,44.5-7.2,75.7-23.9
			c3.3-1.7,6.5-3.5,9.7-5.5l0.4-0.3c8.5-5,16.2-11.1,23.2-17.8c28.9-26.9,47.3-65,48-107.5l8-200.7C421,136.5,419,144.3,408.5,168.5
			"/>
		<path class="st0" d="M89.7,168.5l128.4,296c4.1,9.4,7.8,16.6,12.1,21.6c2.3,2.6,4.6,4.7,7.2,6.1c-16.5-1.6-44.5-7.2-75.7-23.9
			c-3.3-1.7-6.5-3.5-9.7-5.5l-0.4-0.3c-8.4-5-16.2-11.1-23.2-17.8c-28.9-26.9-47.2-65-48-107.5l-8-200.7
			C77.2,136.5,79.1,144.3,89.7,168.5"/>
		<path class="st1" d="M400.2,111.2c-9.3-16.7-30.8-55.2-44.6-80C348.2,18,342.5,8.6,320,8.6c-38,0-113.2,0-143.7,0
			c-14.6,0-22.4,2.1-34.4,23.1c-9.5,16.6-31,54.8-44.7,80.1c-12.2,22.4-1.8,40.3,1,46.5c4.8,10.5,131,300.4,131,300.4
			c3.7,8.5,6.9,14.8,10.4,18.8c2.8,3.2,5.7,4.9,9.2,4.9c3.6,0,6.5-1.7,9.2-4.9c3.4-4.1,6.7-10.4,10.4-18.8
			c0,0,125-285.5,131.9-299.8C403.4,152.4,413.3,135.1,400.2,111.2z"/>
	</g>
	<g>
		<path class="st0" d="M177.3,173.7c0,0,4.9,66.1,6.4,88.1c1.2,17.6,7.1,17.6,16.2,17.6c27.1,0,83.9,0,106.6,0
			c10.7,0,15.3-5,17.5-12.7c6.1-21.2,18.2-63.2,23.1-80.2c0.9-3.2,1.7-12.9-14.6-12.9C293.3,173.7,177.3,173.7,177.3,173.7z"/>
		<path class="st2" d="M350.9,221.9"/>
		<g>
			<path class="st3" d="M221.4,279.4V145.2c0-16.3,13.2-29.5,29.5-29.5l0,0c16.3,0,29.5,13.2,29.5,29.5v134.4"/>
			<path class="st3" d="M242.4,279.6V151.1c0-16.3,13.2-29.5,29.5-29.5l0,0c16.3,0,29.5,13.2,29.5,29.5v128.4"/>
		</g>
		<g>
			<path class="st4" d="M221.4,173.7v-28.5c0-16.3,13.2-29.5,29.5-29.5l0,0c16.3,0,29.5,13.2,29.5,29.5v28.5"/>
			<path class="st4" d="M242.4,173.7v-22.7c0-16.3,13.2-29.5,29.5-29.5l0,0c16.3,0,29.5,13.2,29.5,29.5v22.7"/>
		</g>
		<path class="st2" d="M177.4,221.9"/>
		<path class="st0" d="M309.1,308.9c0,10.9-8.8,19.7-19.7,19.7c-10.9,0-19.7-8.8-19.7-19.7s8.8-19.7,19.7-19.7
			C300.2,289.2,309.1,298,309.1,308.9z"/>
		<path class="st0" d="M189.7,270.9h9.1h5.7c0,0-2.3-1.3-4.4-4.6c-1.6-2.5-3.1-6-3.5-11C193.5,218.1,190,151,190,151
			c0-3.8-2.4-4.9-6.9-6.9l-44-19.2c-3.5-1.5-7.5,0.1-9,3.5c-1.5,3.5,0.1,7.5,3.6,9l42.7,20.3c0,0,4.1,57.7,8.1,97.7
			C185.4,265.7,189.7,270.9,189.7,270.9z"/>
		<path class="st0" d="M218.1,289.2c-10.9,0-19.7,8.8-19.7,19.7c0,10.9,8.8,19.7,19.7,19.7c10.9,0,19.7-8.8,19.7-19.7
			C237.7,298,228.9,289.2,218.1,289.2z"/>
	</g>
</g>
</svg>
