<?xml version="1.0" encoding="utf-8"?>
<!-- Generator: Adobe Illustrator 27.3.1, SVG Export Plug-In . SVG Version: 6.00 Build 0)  -->
<svg version="1.1" id="Capa_1" xmlns="http://www.w3.org/2000/svg" xmlns:xlink="http://www.w3.org/1999/xlink" x="0px" y="0px"
	 viewBox="0 0 500 500" style="enable-background:new 0 0 500 500;" xml:space="preserve">
<style type="text/css">
	.st0{fill:#1E3969;}
	.st1{fill:#00953B;}
</style>
<g>
	<path class="st0" d="M433.55,169.55c-1.63-0.84-8.5-3.58-10.6-4.32c-17.57-6.43-48.51-10.17-67.33,23.55
		c-18.12,32.49-82.47,156.16-97.78,187.06c-6.92,13.95-8.22,13.8-15.63,0.12c-14.58-26.9-81.34-151.78-103-196.92
		c-2.07-4.31-9.64-17.03-0.71-32.85c10.09-17.88,25.91-44.9,32.91-56.69c8.79-14.84,14.56-16.32,25.29-16.32
		c18.58,0,59.68,0,89.12,0l51.01-65.07H163.2c-10.98,0-21.15,5.98-26.78,15.75l-71.18,122.9c-3,5.18-4.5,10.98-4.5,16.79
		c0,6.25,1.72,12.49,5.16,17.94c0,0,139.93,265.38,158.04,296.15c2.82,4.79,10.75,11.34,17.79,13.38c1.32,0.38,2.66,0.65,4.02,0.85
		h0.05c1.38,0.2,2.84,0.3,4.23,0.3c5.73,0,11.57-1.61,16.74-5.05c0.34-0.27,0.73-0.52,1.09-0.76c3.56-2.6,6.59-5.73,8.61-9.41
		c8.94-16.24,158.99-297.78,158.99-297.78C438.34,174.69,437.97,171.8,433.55,169.55z"/>
	<path class="st1" d="M372.03,36.91c-1.81-3.34-7.58-13.04-7.58-13.04c-5.64-9.77-15.78-15.75-26.76-15.75c0,0-24-0.02-40.28-0.02
		c-8.41,0,25.07,8.22,13.34,26.98c-15.21,24.34-71.03,113.11-77.67,123.81c-18.29,30.59-3.23,54.89,9.39,69.16
		c1.44,1.7,6.62,7.2,7.97,8.45c3.75,3.37,6.44,2.51,9.27-2.01c4.61-7.43,13.16-20.77,20.62-32.71
		c20.36-32.99,76.17-123.02,89.35-144.03C375.2,49,376.63,45.5,372.03,36.91z"/>
</g>
</svg>
