<?xml version="1.0" encoding="utf-8"?>
<!-- Generator: Adobe Illustrator 27.3.1, SVG Export Plug-In . SVG Version: 6.00 Build 0)  -->
<svg version="1.1" id="Capa_1" xmlns="http://www.w3.org/2000/svg" xmlns:xlink="http://www.w3.org/1999/xlink" x="0px" y="0px"
	 viewBox="0 0 500 500" style="enable-background:new 0 0 500 500;" xml:space="preserve">
<style type="text/css">
	.st0{fill:#1E3969;}
	.st1{fill:#38668D;}
	.st2{fill:#B2B2B2;}
</style>
<g>
	<g>
		<g>
			<path class="st0" d="M408.87,168.47L280.48,464.32c-4.11,9.42-7.8,16.59-12.07,21.56c-2.25,2.65-4.62,4.68-7.22,6.14
				c16.49-1.61,44.49-7.23,75.66-23.9c3.29-1.71,6.51-3.55,9.66-5.48l0.44-0.28c8.47-5.05,16.2-11.08,23.23-17.78
				c28.92-26.92,47.25-65,48.03-107.42l7.99-200.6C421.34,136.49,419.38,144.24,408.87,168.47"/>
		</g>
		<g>
			<path class="st0" d="M90.11,168.47l128.4,295.86c4.07,9.42,7.82,16.59,12.05,21.56c2.28,2.65,4.62,4.68,7.22,6.14
				c-16.48-1.61-44.46-7.23-75.65-23.9c-3.29-1.71-6.47-3.55-9.66-5.48l-0.44-0.28c-8.43-5.05-16.23-11.08-23.24-17.78
				c-28.88-26.92-47.23-65-48.02-107.42l-7.97-200.6C77.66,136.49,79.6,144.24,90.11,168.47"/>
		</g>
		<g>
			<path class="st1" d="M400.54,111.22c-9.31-16.74-30.74-55.22-44.6-79.98c-7.4-13.28-13.07-22.61-35.54-22.61
				c-38.04,0-113.14,0-143.67,0c-14.56,0-22.43,2.06-34.41,23.09c-9.5,16.58-31,54.82-44.68,80.04c-12.18,22.4-1.81,40.29,1,46.47
				c4.79,10.51,130.91,300.31,130.91,300.31c3.69,8.45,6.93,14.76,10.36,18.83c2.75,3.21,5.67,4.86,9.19,4.88
				c3.57-0.02,6.46-1.66,9.22-4.88c3.44-4.07,6.7-10.38,10.35-18.83c0,0,125-285.39,131.9-299.65
				C403.72,152.32,413.69,135.01,400.54,111.22z"/>
		</g>
	</g>
	<g>
		<g>
			<path class="st2" d="M257.39,317.65c0.12-0.12,0.24-0.24,0.35-0.36c2.69-3,2.62-7.62-0.23-10.54
				c-0.11-0.12-11.37-11.88-18.23-34.4c-9.1-29.87-6.36-65.2,7.93-102.15c1.16-2.99,0.34-6.39-2.05-8.54L155.47,81.6
				c-3.18-2.85-8.06-2.58-10.9,0.6c-2.85,3.18-2.58,8.06,0.6,10.9l85.76,76.53c-17.66,48.83-13.18,85.65-6.11,108.2
				c8.07,25.76,21.14,39.18,21.69,39.74C249.5,320.6,254.35,320.63,257.39,317.65z"/>
		</g>
		<g>
			<path class="st2" d="M244.71,314.81c1.39,4.03,5.78,6.15,9.8,4.77c1.29-0.44,2.38-1.19,3.23-2.14c1.81-2.01,2.5-4.92,1.56-7.66
				c-0.05-0.16-5.46-16.28-5.07-39.42c0.52-30.71,26.65-76.87,45.77-101.31c2.5-3.2,2.1-7.8-0.93-10.51l-84.44-75.35
				c-3.18-2.85-8.06-2.58-10.9,0.6c-2.85,3.18-2.58,8.06,0.6,10.9l79.19,70.64c-22.96,32.21-44.44,83.13-44.73,105.44
				C238.46,296.44,244.46,314.07,244.71,314.81z"/>
		</g>
		<g>
			<path class="st2" d="M251.23,319.84c2.51,0.21,4.83-0.81,6.39-2.55c1.08-1.21,1.8-2.77,1.94-4.52
				c4.52-54.94,91.54-142.95,92.01-143.38c1.61-1.48,2.53-3.56,2.52-5.74c-0.01-2.18-0.94-4.26-2.57-5.72l-85.41-76.22
				c-3.18-2.85-8.06-2.58-10.9,0.6c-2.85,3.18-2.58,8.06,0.6,10.9l79.31,70.76c-13.97,14.64-86.91,98.36-90.95,147.53
				C243.82,315.76,246.98,319.49,251.23,319.84z"/>
		</g>
	</g>
</g>
</svg>
