<?xml version="1.0" encoding="utf-8"?>
<!-- Generator: Adobe Illustrator 27.3.1, SVG Export Plug-In . SVG Version: 6.00 Build 0)  -->
<svg version="1.1" id="Capa_1" xmlns="http://www.w3.org/2000/svg" xmlns:xlink="http://www.w3.org/1999/xlink" x="0px" y="0px"
	 viewBox="0 0 500 500" style="enable-background:new 0 0 500 500;" xml:space="preserve">
<style type="text/css">
	.st0{fill:#C8C8C8;}
	.st1{fill:#EEEEEE;}
	.st2{fill:#FFFFFF;}
</style>
<g>
	<g>
		<g>
			<path class="st0" d="M408.9,168.5L280.5,464.3c-4.1,9.4-7.8,16.6-12.1,21.6c-2.2,2.6-4.6,4.7-7.2,6.1
				c16.5-1.6,44.5-7.2,75.7-23.9c3.3-1.7,6.5-3.5,9.7-5.5l0.4-0.3c8.5-5,16.2-11.1,23.2-17.8c28.9-26.9,47.2-65,48-107.4l8-200.6
				C421.3,136.5,419.4,144.2,408.9,168.5"/>
		</g>
		<g>
			<path class="st0" d="M90.1,168.5l128.4,295.9c4.1,9.4,7.8,16.6,12.1,21.6c2.3,2.6,4.6,4.7,7.2,6.1c-16.5-1.6-44.5-7.2-75.6-23.9
				c-3.3-1.7-6.5-3.5-9.7-5.5l-0.4-0.3c-8.4-5-16.2-11.1-23.2-17.8c-28.9-26.9-47.2-65-48-107.4l-8-200.6
				C77.7,136.5,79.6,144.2,90.1,168.5"/>
		</g>
		<g>
			<path class="st1" d="M400.5,111.2c-9.3-16.7-30.7-55.2-44.6-80C348.5,18,342.9,8.6,320.4,8.6c-38,0-113.1,0-143.7,0
				c-14.6,0-22.4,2.1-34.4,23.1c-9.5,16.6-31,54.8-44.7,80c-12.2,22.4-1.8,40.3,1,46.5c4.8,10.5,130.9,300.3,130.9,300.3
				c3.7,8.5,6.9,14.8,10.4,18.8c2.8,3.2,5.7,4.9,9.2,4.9c3.6,0,6.5-1.7,9.2-4.9c3.4-4.1,6.7-10.4,10.4-18.8
				c0,0,125-285.4,131.9-299.6C403.7,152.3,413.7,135,400.5,111.2z"/>
		</g>
	</g>
	<g>
		<g>
			<path class="st2" d="M257.4,317.6c0.1-0.1,0.2-0.2,0.4-0.4c2.7-3,2.6-7.6-0.2-10.5c-0.1-0.1-11.4-11.9-18.2-34.4
				c-9.1-29.9-6.4-65.2,7.9-102.1c1.2-3,0.3-6.4-2.1-8.5l-89.7-80.1c-3.2-2.8-8.1-2.6-10.9,0.6c-2.9,3.2-2.6,8.1,0.6,10.9l85.8,76.5
				c-17.7,48.8-13.2,85.6-6.1,108.2c8.1,25.8,21.1,39.2,21.7,39.7C249.5,320.6,254.4,320.6,257.4,317.6z"/>
		</g>
		<g>
			<path class="st2" d="M244.7,314.8c1.4,4,5.8,6.1,9.8,4.8c1.3-0.4,2.4-1.2,3.2-2.1c1.8-2,2.5-4.9,1.6-7.7c0-0.2-5.5-16.3-5.1-39.4
				c0.5-30.7,26.6-76.9,45.8-101.3c2.5-3.2,2.1-7.8-0.9-10.5l-84.4-75.3c-3.2-2.8-8.1-2.6-10.9,0.6c-2.9,3.2-2.6,8.1,0.6,10.9
				l79.2,70.6c-23,32.2-44.4,83.1-44.7,105.4C238.5,296.4,244.5,314.1,244.7,314.8z"/>
		</g>
		<g>
			<path class="st2" d="M251.2,319.8c2.5,0.2,4.8-0.8,6.4-2.5c1.1-1.2,1.8-2.8,1.9-4.5c4.5-54.9,91.5-142.9,92-143.4
				c1.6-1.5,2.5-3.6,2.5-5.7c0-2.2-0.9-4.3-2.6-5.7l-85.4-76.2c-3.2-2.8-8.1-2.6-10.9,0.6c-2.9,3.2-2.6,8.1,0.6,10.9l79.3,70.8
				c-14,14.6-86.9,98.4-90.9,147.5C243.8,315.8,247,319.5,251.2,319.8z"/>
		</g>
	</g>
</g>
</svg>
