<?xml version="1.0" encoding="utf-8"?>
<!-- Generator: Adobe Illustrator 27.3.1, SVG Export Plug-In . SVG Version: 6.00 Build 0)  -->
<svg version="1.1" id="Capa_1" xmlns="http://www.w3.org/2000/svg" xmlns:xlink="http://www.w3.org/1999/xlink" x="0px" y="0px"
	 viewBox="0 0 500 500" style="enable-background:new 0 0 500 500;" xml:space="preserve">
<style type="text/css">
	.st0{fill:#47A534;}
	.st1{fill:#364F9D;}
	.st2{fill:#FFFFFF;}
</style>
<path class="st0" d="M56.3,319.9c-7.5,5.6-18.4,17.7-18.4,32.6c0,28.4,39.5,54.4,98.2,54.4c78.8,0,148.7-45.9,148.7-112.9
	c0-7.9-1.3-15-0.3-23.4c1.8-14.9,74.5-70.4,137.5-96.6c44.6-18.6,71-37.7,71-65.7c0-9.8-10.3-18.6-28.5-18.6
	c-19.9,0-44.8,9.5-75.9,36.6c-28.1,24.4-94.6,112.2-121.4,125.4c-6.2,3-17.3,7.5-17.3,7.5s0.3,7.5,0,23.3
	c0,51.7-71.5,75.6-135.7,75.6c-42.7,0-58.3-11.4-58.3-31.4C55.8,324.5,56,322.3,56.3,319.9z"/>
<path class="st1" d="M149.2,83.7C119.9,83.7,7,177.8,7,188.4c0,3.5,6.4,7.3,14.9,10.8l0,44.7c1.9-0.6,3.8-0.9,5.9-0.9
	c2.4,0,4.7,0.4,6.9,1.2l0-40.5c14.6,4.7,29.5,8.1,29.5,8.1S65.6,306,65.6,315c0,20.3,6.8,25.9,33.1,25.9c43,0,137.7-8,137.7-62.3
	c0-47.5,0-66.8,0-66.8s51.2-13.4,51.2-23C287.6,177.2,178.8,83.7,149.2,83.7z"/>
<path class="st2" d="M77.9,212.1c0-2,0.9-4,2.4-5.3c8-6.9,35.2-27.8,73.5-27.6c21.4,0.1,50.5,6.2,71.2,25.5c1.5,1.4-0.2,3.8-2,2.9
	c-17.9-8.3-36.6-16.4-69.2-16.4c-34.5,0-59.1,14.8-66,20.3c-1.1,0.9-1.7,2.2-1.8,3.6c-0.2,6.9-0.3,28.4-1.7,38.5
	c-0.5,3.2-1.3,5.2-2.8,5.2c-1.5,0-2.7-1.8-3.1-4.9C77.5,244.9,78,225.8,77.9,212.1z"/>
<path class="st0" d="M42.2,265.4c0-7.8-6.3-14.1-14.1-14.1S14,257.7,14,265.4c0,5.4,3,10,7.4,12.4l-2.9,29.9
	c6.1,4.5,13.5,4.7,19.3,0l-2.9-29.9C39.2,275.5,42.2,270.8,42.2,265.4z"/>
</svg>
