<?xml version="1.0" encoding="utf-8"?>
<!-- Generator: Adobe Illustrator 27.3.1, SVG Export Plug-In . SVG Version: 6.00 Build 0)  -->
<svg version="1.1" id="Capa_1" xmlns="http://www.w3.org/2000/svg" xmlns:xlink="http://www.w3.org/1999/xlink" x="0px" y="0px"
	 viewBox="0 0 500 500" style="enable-background:new 0 0 500 500;" xml:space="preserve">
<style type="text/css">
	.st0{fill:#69256D;}
	.st1{fill:#B584B9;}
</style>
<g>
	<g>
		<path class="st0" d="M409,168.54L280.57,464.49c-4.11,9.42-7.81,16.59-12.08,21.57c-2.25,2.65-4.62,4.69-7.22,6.14
			c16.5-1.61,44.51-7.23,75.69-23.91c3.29-1.7,6.51-3.53,9.66-5.48l0.44-0.28c8.47-5.05,16.21-11.07,23.23-17.78
			c28.93-26.92,47.26-65.02,48.04-107.45l7.99-200.67C421.48,136.54,419.52,144.3,409,168.54"/>
		<path class="st0" d="M90.13,168.54l128.45,295.95c4.07,9.42,7.82,16.59,12.06,21.57c2.27,2.65,4.62,4.69,7.22,6.14
			c-16.49-1.61-44.47-7.23-75.68-23.91c-3.29-1.7-6.48-3.53-9.66-5.48l-0.44-0.28c-8.44-5.05-16.23-11.07-23.25-17.78
			c-28.89-26.92-47.25-65.02-48.03-107.45l-7.97-200.67C77.68,136.54,79.62,144.3,90.13,168.54"/>
		<path class="st1" d="M400.67,111.25c-9.31-16.73-30.75-55.24-44.61-80.01c-7.4-13.28-13.07-22.63-35.56-22.63
			c-38.05,0-113.18,0-143.72,0c-14.56,0-22.44,2.06-34.43,23.09c-9.5,16.58-31.01,54.85-44.69,80.08
			c-12.18,22.41-1.81,40.31,1,46.48c4.8,10.53,130.95,300.41,130.95,300.41c3.69,8.45,6.93,14.77,10.36,18.84
			c2.75,3.22,5.67,4.87,9.2,4.88c3.57-0.01,6.46-1.66,9.22-4.88c3.44-4.06,6.7-10.39,10.35-18.84c0,0,125.04-285.48,131.95-299.76
			C403.86,152.39,413.82,135.06,400.67,111.25z"/>
	</g>
	<g>
		<path class="st0" d="M282.45,125.97c-7.05-1.12-9.73,4.46-0.8,7.95c10.13,3.93,25.16,12.4,31.5,29.73
			c15.64,42.75-4.57,89.03-46.92,105.7c-24.89,9.79-51.64,6.56-72.9-6.3c2.5-7.67-0.62-14.21-6.41-16.97
			c-5.89-2.81-13.21-9.15-18.92-24.41c-6.35-16.94-18.86-21.2-22.34-17.21c-3.51,3.99,1.93,4.14,4.76,9.9
			c2.78,5.65-0.41,13.19,7.71,31.24c15.09,33.48,48.65,48.51,48.65,48.51l-0.06-0.12c24.04,12.55,53.14,15.09,80.35,4.38
			c49.78-19.59,74.24-75.83,54.66-125.6C331.73,147.34,309.96,130.33,282.45,125.97z"/>
		<path class="st0" d="M349.49,109.66c-4.73-2.12-27.81-16.41-46.93-21.95c-14-4.05-27.76-4.79-43.22-3.36
			c-47.72,4.42-88.81,46.43-88.81,94.35c0,38.34,31.06,69.42,69.41,69.42c13.23,0,25.38-4.65,34.91-12.37v0.02
			c0,0,0.12-0.12,0.17-0.15c3.5-2.86,6.6-6.16,9.32-9.78c1.47-1.84,2.87-3.82,3.99-5.79c2.33-4.12,11.34-6.16,14.24-8.53
			c2.91-2.36,2.39-5.15-0.15-7.56c-1.78-1.69-0.21-4.7,0.47-5.82c0.69-1.12,0.21-1.7-1.11-1.89c-1.28-0.2-1.8-2.16-0.55-3.75
			c1.25-1.59-1.62-3.45-2.15-5.01c-0.54-1.55,1.82-5.08,2.6-7.25c0.78-2.17-0.02-2.6-7.5-6.09c-2.12-0.99-3.33-2-4.31-3.15
			c-3.25-5.86-7.8-10.88-13.23-14.71c-0.09-0.08-0.18-0.15-0.28-0.24v0.02c-7.18-4.98-15.88-7.94-25.29-7.94
			c-19.63,0-35.53,15.93-35.53,35.56c0,2.15,0.27,4.22,0.72,6.23l-0.34-0.28c-1.08-4.67-1.65-9.53-1.65-14.54
			c0-35.76,32.81-68.85,68-74.63c2.38-0.4,5.51-0.43,7.36,0.99c2.59,2,5.36,6.98,9.03,8.37c1.94,0.73,8.64,3.31,17.42,7.15
			c3.12,1.35,6.87,0.08,2.98-3.21c-5.32-4.49-7.34-5.54-6.31-8.32c1.37-3.69,30.59,7.75,35.55,9
			C353.23,115.73,353.93,111.66,349.49,109.66z M278.88,174.42c2.15,0,3.87,1.73,3.87,3.86c0,2.15-1.73,3.86-3.87,3.86
			c-2.13,0-3.85-1.72-3.85-3.86C275.03,176.15,276.75,174.42,278.88,174.42z"/>
	</g>
</g>
</svg>
