<?xml version="1.0" encoding="utf-8"?>
<!-- Generator: Adobe Illustrator 27.3.1, SVG Export Plug-In . SVG Version: 6.00 Build 0)  -->
<svg version="1.1" id="Capa_1" xmlns="http://www.w3.org/2000/svg" xmlns:xlink="http://www.w3.org/1999/xlink" x="0px" y="0px"
	 viewBox="0 0 500 500" style="enable-background:new 0 0 500 500;" xml:space="preserve">
<style type="text/css">
	.st0{fill:#8E8E8E;}
	.st1{fill:#E5E5E5;}
</style>
<g>
	<g>
		<path class="st0" d="M409,168.5l-128.4,296c-4.1,9.4-7.8,16.6-12.1,21.6c-2.2,2.6-4.6,4.7-7.2,6.1c16.5-1.6,44.5-7.2,75.7-23.9
			c3.3-1.7,6.5-3.5,9.7-5.5l0.4-0.3c8.5-5,16.2-11.1,23.2-17.8c28.9-26.9,47.3-65,48-107.5l8-200.7
			C421.5,136.5,419.5,144.3,409,168.5"/>
		<path class="st0" d="M90.1,168.5l128.4,296c4.1,9.4,7.8,16.6,12.1,21.6c2.3,2.6,4.6,4.7,7.2,6.1c-16.5-1.6-44.5-7.2-75.7-23.9
			c-3.3-1.7-6.5-3.5-9.7-5.5l-0.4-0.3c-8.4-5-16.2-11.1-23.2-17.8c-28.9-26.9-47.2-65-48-107.5l-8-200.7
			C77.7,136.5,79.6,144.3,90.1,168.5"/>
		<path class="st1" d="M400.7,111.2c-9.3-16.7-30.8-55.2-44.6-80C348.7,18,343,8.6,320.5,8.6c-38,0-113.2,0-143.7,0
			c-14.6,0-22.4,2.1-34.4,23.1c-9.5,16.6-31,54.8-44.7,80.1c-12.2,22.4-1.8,40.3,1,46.5c4.8,10.5,130.9,300.4,130.9,300.4
			c3.7,8.5,6.9,14.8,10.4,18.8c2.8,3.2,5.7,4.9,9.2,4.9c3.6,0,6.5-1.7,9.2-4.9c3.4-4.1,6.7-10.4,10.4-18.8c0,0,125-285.5,132-299.8
			C403.9,152.4,413.8,135.1,400.7,111.2z"/>
	</g>
	<g>
		<path class="st0" d="M282.5,126c-7-1.1-9.7,4.5-0.8,7.9c10.1,3.9,25.2,12.4,31.5,29.7c15.6,42.8-4.6,89-46.9,105.7
			c-24.9,9.8-51.6,6.6-72.9-6.3c2.5-7.7-0.6-14.2-6.4-17c-5.9-2.8-13.2-9.1-18.9-24.4c-6.4-16.9-18.9-21.2-22.3-17.2
			c-3.5,4,1.9,4.1,4.8,9.9c2.8,5.6-0.4,13.2,7.7,31.2c15.1,33.5,48.7,48.5,48.7,48.5l-0.1-0.1c24,12.5,53.1,15.1,80.4,4.4
			c49.8-19.6,74.2-75.8,54.7-125.6C331.7,147.3,310,130.3,282.5,126z"/>
		<path class="st0" d="M349.5,109.7c-4.7-2.1-27.8-16.4-46.9-21.9c-14-4.1-27.8-4.8-43.2-3.4c-47.7,4.4-88.8,46.4-88.8,94.4
			c0,38.3,31.1,69.4,69.4,69.4c13.2,0,25.4-4.6,34.9-12.4v0c0,0,0.1-0.1,0.2-0.1c3.5-2.9,6.6-6.2,9.3-9.8c1.5-1.8,2.9-3.8,4-5.8
			c2.3-4.1,11.3-6.2,14.2-8.5c2.9-2.4,2.4-5.1-0.1-7.6c-1.8-1.7-0.2-4.7,0.5-5.8c0.7-1.1,0.2-1.7-1.1-1.9c-1.3-0.2-1.8-2.2-0.5-3.8
			s-1.6-3.4-2.1-5c-0.5-1.6,1.8-5.1,2.6-7.2s0-2.6-7.5-6.1c-2.1-1-3.3-2-4.3-3.1c-3.2-5.9-7.8-10.9-13.2-14.7
			c-0.1-0.1-0.2-0.1-0.3-0.2v0c-7.2-5-15.9-7.9-25.3-7.9c-19.6,0-35.5,15.9-35.5,35.6c0,2.1,0.3,4.2,0.7,6.2l-0.3-0.3
			c-1.1-4.7-1.6-9.5-1.6-14.5c0-35.8,32.8-68.8,68-74.6c2.4-0.4,5.5-0.4,7.4,1c2.6,2,5.4,7,9,8.4c1.9,0.7,8.6,3.3,17.4,7.2
			c3.1,1.3,6.9,0.1,3-3.2c-5.3-4.5-7.3-5.5-6.3-8.3c1.4-3.7,30.6,7.8,35.5,9C353.2,115.7,353.9,111.7,349.5,109.7z M278.9,174.4
			c2.1,0,3.9,1.7,3.9,3.9c0,2.1-1.7,3.9-3.9,3.9c-2.1,0-3.9-1.7-3.9-3.9C275,176.1,276.8,174.4,278.9,174.4z"/>
	</g>
</g>
</svg>
