<?xml version="1.0" encoding="utf-8"?>
<!-- Generator: Adobe Illustrator 27.3.1, SVG Export Plug-In . SVG Version: 6.00 Build 0)  -->
<svg version="1.1" id="Capa_1" xmlns="http://www.w3.org/2000/svg" xmlns:xlink="http://www.w3.org/1999/xlink" x="0px" y="0px"
	 viewBox="0 0 500 500" style="enable-background:new 0 0 500 500;" xml:space="preserve">
<style type="text/css">
	.st0{fill:#AE3C42;}
	.st1{fill:#EF8892;}
	.st2{fill:#5A4796;stroke:#5A4796;stroke-width:0.75;stroke-miterlimit:10;}
	.st3{fill:none;stroke:#E20717;stroke-miterlimit:10;}
</style>
<g>
	<g>
		<path class="st0" d="M409,168.53L280.57,464.49c-4.11,9.42-7.81,16.59-12.08,21.57c-2.25,2.65-4.62,4.69-7.21,6.13
			c16.49-1.6,44.5-7.23,75.69-23.91c3.29-1.7,6.5-3.54,9.66-5.48l0.43-0.28c8.47-5.05,16.22-11.08,23.23-17.78
			c28.93-26.93,47.26-65.03,48.04-107.46l7.99-200.67C421.48,136.54,419.52,144.29,409,168.53"/>
		<path class="st0" d="M90.14,168.53l128.44,295.96c4.08,9.42,7.83,16.59,12.07,21.57c2.28,2.65,4.61,4.69,7.21,6.13
			c-16.49-1.6-44.47-7.23-75.68-23.91c-3.29-1.7-6.48-3.54-9.66-5.48l-0.44-0.28c-8.44-5.05-16.22-11.08-23.25-17.78
			c-28.89-26.93-47.24-65.03-48.03-107.46l-7.97-200.67C77.68,136.54,79.62,144.29,90.14,168.53"/>
		<path class="st1" d="M400.67,111.25c-9.31-16.74-30.74-55.24-44.61-80.01C348.67,17.96,343,8.62,320.51,8.62
			c-38.07,0-113.19,0-143.72,0c-14.58,0-22.44,2.07-34.44,23.09c-9.49,16.58-31.01,54.85-44.69,80.08
			c-12.18,22.41-1.81,40.3,1,46.48c4.8,10.52,130.97,300.41,130.97,300.41c3.68,8.45,6.92,14.77,10.36,18.84
			c2.74,3.21,5.66,4.86,9.2,4.88c3.56-0.02,6.47-1.66,9.21-4.88c3.44-4.07,6.7-10.39,10.35-18.84c0,0,125.05-285.49,131.95-299.76
			C403.86,152.38,413.83,135.06,400.67,111.25z"/>
	</g>
	<g>
		<path class="st0" d="M331.24,173.74c0,33.68-47.06,106.03-68.59,141.55c-12.71,20.99-12.71,20.99-25.29,0.16
			c-22.23-36.83-68.71-107.98-68.71-141.71c0-44.9,36.4-81.3,81.3-81.3C294.85,92.44,331.24,128.83,331.24,173.74z"/>
		<path class="st1" d="M333.7,132.31c-4-7.47-11.88-12.55-20.92-12.55c-6.06,0-11.58,2.26-15.77,5.98
			c-4.21-3.78-9.77-6.09-15.87-6.09c-6.12,0-11.67,2.3-15.89,6.08c-4.18-3.73-9.71-6-15.75-6c-6.08,0-11.62,2.28-15.82,6.03
			c-4.2-3.75-9.73-6.03-15.8-6.03c-6.1,0-11.66,2.29-15.86,6.05c-4.19-3.73-9.71-6.01-15.77-6.01c-9.07,0-16.94,5.07-20.95,12.51
			c-14.05-2.6-34.27,0.37-34.27,8.92c0,13.13,10.61,23.76,23.77,23.76c5.41,0,10.41-1.83,14.4-4.89c4.32,4.44,10.35,7.21,17.05,7.21
			c6.08,0,11.62-2.29,15.81-6.05c4.2,3.73,9.73,6,15.81,6c6.07,0,11.6-2.28,15.8-6.03c4.2,3.75,9.74,6.03,15.82,6.03
			c6.09,0,11.65-2.29,15.84-6.07c4.2,3.73,9.74,6,15.81,6c6.03,0,11.55-2.26,15.74-5.98c4.2,3.78,9.77,6.09,15.89,6.09
			c6.71,0,12.77-2.8,17.08-7.28c4.01,3.11,9.07,4.97,14.55,4.97c13.12,0,23.74-10.63,23.74-23.76
			C368.15,132.62,347.76,129.65,333.7,132.31z"/>
		<path class="st2" d="M359.78,216.66"/>
		<rect x="216.9" y="158.27" class="st1" width="66.01" height="62.79"/>
		<path class="st0" d="M293.58,84.32l-87.78,0.09l-66.86,59.46c0.19,8.58,7.18,15.48,15.84,15.48c8.13,0,14.82-6.13,15.71-14.03
			c0.9,7.9,7.59,14.03,15.75,14.03c8.46,0,15.37-6.65,15.79-15.02c0.44,8.35,7.35,14.98,15.82,14.98c8.46,0,15.37-6.64,15.8-15
			c0.44,8.36,7.34,15,15.82,15c8.58,0,15.56-6.83,15.8-15.36c0.29,8.5,7.27,15.29,15.85,15.29c8.53,0,15.47-6.74,15.81-15.21
			c0.27,8.51,7.25,15.31,15.82,15.31c8.54,0,15.49-6.76,15.81-15.23c0.3,8.47,7.26,15.24,15.83,15.24c8.62,0,15.61-6.9,15.8-15.48
			L293.58,84.32z"/>
		<line class="st3" x1="170.49" y1="145.32" x2="218.54" y2="84.89"/>
		<path class="st0" d="M219.12,84.41H205.8l-66.86,59.46c0.19,8.58,7.18,15.48,15.84,15.48c8.13,0,14.82-6.13,15.71-14.03
			C180.89,132.25,219.12,84.41,219.12,84.41z"/>
		<path class="st1" d="M232.03,84.32l-13.49,0.09c0,0-36.52,46.45-48.06,60.91c0.9,7.9,7.59,14.03,15.75,14.03
			c8.46,0,15.37-6.65,15.79-15.02C209.72,128.88,232.03,84.32,232.03,84.32z"/>
		<path class="st0" d="M243.42,84.32l-11.39,0.09c0,0-21.25,42.38-30,59.92c0.44,8.35,7.35,14.98,15.82,14.98
			c8.46,0,15.37-6.64,15.8-15C236.39,126.85,243.42,84.32,243.42,84.32z"/>
		<path class="st1" d="M256.2,84.32l-12.78,0.09c0,0-6.17,37.47-9.77,59.9c0.44,8.36,7.34,15,15.82,15c8.58,0,15.56-6.83,15.8-15.36
			C261.94,124.78,256.2,84.32,256.2,84.32z"/>
		<path class="st0" d="M268,84.32l-11.66,0.09c0,0,3.78,28.45,8.94,59.54c0.29,8.5,7.27,15.29,15.85,15.29
			c8.53,0,15.47-6.74,15.81-15.21C279.8,109.94,268,84.32,268,84.32z"/>
		<path class="st1" d="M280.82,84.32l-12.68,0.09c0,0,15.02,32.23,28.8,59.62c0.27,8.51,7.25,15.31,15.82,15.31
			c8.54,0,15.49-6.76,15.81-15.23C299.91,108.19,280.82,84.32,280.82,84.32z"/>
	</g>
</g>
</svg>
