<?xml version="1.0" encoding="utf-8"?>
<!-- Generator: Adobe Illustrator 27.3.1, SVG Export Plug-In . SVG Version: 6.00 Build 0)  -->
<svg version="1.1" id="Capa_1" xmlns="http://www.w3.org/2000/svg" xmlns:xlink="http://www.w3.org/1999/xlink" x="0px" y="0px"
	 viewBox="0 0 500 500" style="enable-background:new 0 0 500 500;" xml:space="preserve">
<style type="text/css">
	.st0{fill:#ABABAB;}
	.st1{fill:#F4F4F4;}
	.st2{fill:#A2A2A2;stroke:#A2A2A2;stroke-width:0.75;stroke-miterlimit:10;}
	.st3{fill:none;stroke:#979797;stroke-miterlimit:10;}
</style>
<g>
	<g>
		<path class="st0" d="M409,168.5l-128.4,296c-4.1,9.4-7.8,16.6-12.1,21.6c-2.2,2.6-4.6,4.7-7.2,6.1c16.5-1.6,44.5-7.2,75.7-23.9
			c3.3-1.7,6.5-3.5,9.7-5.5l0.4-0.3c8.5-5,16.2-11.1,23.2-17.8c28.9-26.9,47.3-65,48-107.5l8-200.7
			C421.5,136.5,419.5,144.3,409,168.5"/>
		<path class="st0" d="M90.1,168.5l128.4,296c4.1,9.4,7.8,16.6,12.1,21.6c2.3,2.6,4.6,4.7,7.2,6.1c-16.5-1.6-44.5-7.2-75.7-23.9
			c-3.3-1.7-6.5-3.5-9.7-5.5l-0.4-0.3c-8.4-5-16.2-11.1-23.2-17.8c-28.9-26.9-47.2-65-48-107.5l-8-200.7
			C77.7,136.5,79.6,144.3,90.1,168.5"/>
		<path class="st1" d="M400.7,111.2c-9.3-16.7-30.7-55.2-44.6-80C348.7,18,343,8.6,320.5,8.6c-38.1,0-113.2,0-143.7,0
			c-14.6,0-22.4,2.1-34.4,23.1c-9.5,16.6-31,54.8-44.7,80.1c-12.2,22.4-1.8,40.3,1,46.5c4.8,10.5,131,300.4,131,300.4
			c3.7,8.5,6.9,14.8,10.4,18.8c2.7,3.2,5.7,4.9,9.2,4.9c3.6,0,6.5-1.7,9.2-4.9c3.4-4.1,6.7-10.4,10.4-18.8c0,0,125-285.5,132-299.8
			C403.9,152.4,413.8,135.1,400.7,111.2z"/>
	</g>
	<g>
		<path class="st0" d="M331.2,173.7c0,33.7-47.1,106-68.6,141.6c-12.7,21-12.7,21-25.3,0.2c-22.2-36.8-68.7-108-68.7-141.7
			c0-44.9,36.4-81.3,81.3-81.3S331.2,128.8,331.2,173.7z"/>
		<path class="st1" d="M333.7,132.3c-4-7.5-11.9-12.6-20.9-12.6c-6.1,0-11.6,2.3-15.8,6c-4.2-3.8-9.8-6.1-15.9-6.1
			c-6.1,0-11.7,2.3-15.9,6.1c-4.2-3.7-9.7-6-15.8-6c-6.1,0-11.6,2.3-15.8,6c-4.2-3.8-9.7-6-15.8-6c-6.1,0-11.7,2.3-15.9,6.1
			c-4.2-3.7-9.7-6-15.8-6c-9.1,0-16.9,5.1-20.9,12.5c-14.1-2.6-34.3,0.4-34.3,8.9c0,13.1,10.6,23.8,23.8,23.8
			c5.4,0,10.4-1.8,14.4-4.9c4.3,4.4,10.4,7.2,17.1,7.2c6.1,0,11.6-2.3,15.8-6.1c4.2,3.7,9.7,6,15.8,6c6.1,0,11.6-2.3,15.8-6
			c4.2,3.8,9.7,6,15.8,6c6.1,0,11.6-2.3,15.8-6.1c4.2,3.7,9.7,6,15.8,6c6,0,11.5-2.3,15.7-6c4.2,3.8,9.8,6.1,15.9,6.1
			c6.7,0,12.8-2.8,17.1-7.3c4,3.1,9.1,5,14.5,5c13.1,0,23.7-10.6,23.7-23.8C368.1,132.6,347.8,129.6,333.7,132.3z"/>
		<path class="st2" d="M359.8,216.7"/>
		<rect x="216.9" y="158.3" class="st1" width="66" height="62.8"/>
		<path class="st0" d="M293.6,84.3l-87.8,0.1l-66.9,59.5c0.2,8.6,7.2,15.5,15.8,15.5c8.1,0,14.8-6.1,15.7-14c0.9,7.9,7.6,14,15.8,14
			c8.5,0,15.4-6.6,15.8-15c0.4,8.4,7.4,15,15.8,15c8.5,0,15.4-6.6,15.8-15c0.4,8.4,7.3,15,15.8,15c8.6,0,15.6-6.8,15.8-15.4
			c0.3,8.5,7.3,15.3,15.9,15.3c8.5,0,15.5-6.7,15.8-15.2c0.3,8.5,7.2,15.3,15.8,15.3c8.5,0,15.5-6.8,15.8-15.2
			c0.3,8.5,7.3,15.2,15.8,15.2c8.6,0,15.6-6.9,15.8-15.5L293.6,84.3z"/>
		<line class="st3" x1="170.5" y1="145.3" x2="218.5" y2="84.9"/>
		<path class="st0" d="M219.1,84.4h-13.3l-66.9,59.5c0.2,8.6,7.2,15.5,15.8,15.5c8.1,0,14.8-6.1,15.7-14
			C180.9,132.2,219.1,84.4,219.1,84.4z"/>
		<path class="st1" d="M232,84.3l-13.5,0.1c0,0-36.5,46.5-48.1,60.9c0.9,7.9,7.6,14,15.8,14c8.5,0,15.4-6.6,15.8-15
			C209.7,128.9,232,84.3,232,84.3z"/>
		<path class="st0" d="M243.4,84.3L232,84.4c0,0-21.2,42.4-30,59.9c0.4,8.4,7.4,15,15.8,15c8.5,0,15.4-6.6,15.8-15
			C236.4,126.8,243.4,84.3,243.4,84.3z"/>
		<path class="st1" d="M256.2,84.3l-12.8,0.1c0,0-6.2,37.5-9.8,59.9c0.4,8.4,7.3,15,15.8,15c8.6,0,15.6-6.8,15.8-15.4
			C261.9,124.8,256.2,84.3,256.2,84.3z"/>
		<path class="st0" d="M268,84.3l-11.7,0.1c0,0,3.8,28.5,8.9,59.5c0.3,8.5,7.3,15.3,15.9,15.3c8.5,0,15.5-6.7,15.8-15.2
			C279.8,109.9,268,84.3,268,84.3z"/>
		<path class="st1" d="M280.8,84.3l-12.7,0.1c0,0,15,32.2,28.8,59.6c0.3,8.5,7.2,15.3,15.8,15.3c8.5,0,15.5-6.8,15.8-15.2
			C299.9,108.2,280.8,84.3,280.8,84.3z"/>
	</g>
</g>
</svg>
