<?xml version="1.0" encoding="utf-8"?>
<!-- Generator: Adobe Illustrator 27.3.1, SVG Export Plug-In . SVG Version: 6.00 Build 0)  -->
<svg version="1.1" id="Capa_1" xmlns="http://www.w3.org/2000/svg" xmlns:xlink="http://www.w3.org/1999/xlink" x="0px" y="0px"
	 viewBox="0 0 500 500" style="enable-background:new 0 0 500 500;" xml:space="preserve">
<style type="text/css">
	.st0{fill:#A88C53;}
	.st1{fill:#E8DAA6;}
</style>
<g>
	<g>
		<path class="st0" d="M409,168.53L280.56,464.49c-4.11,9.42-7.81,16.6-12.07,21.57c-2.26,2.65-4.63,4.69-7.23,6.14
			c16.5-1.6,44.5-7.23,75.69-23.91c3.29-1.7,6.5-3.54,9.66-5.49l0.44-0.27c8.47-5.06,16.21-11.08,23.23-17.78
			c28.92-26.93,47.26-65.03,48.04-107.46l8-200.67C421.48,136.54,419.51,144.29,409,168.53"/>
		<path class="st0" d="M90.13,168.53l128.44,295.96c4.07,9.42,7.82,16.6,12.06,21.57c2.27,2.65,4.62,4.69,7.22,6.14
			c-16.48-1.6-44.47-7.23-75.68-23.91c-3.29-1.7-6.48-3.54-9.66-5.49l-0.44-0.27c-8.43-5.06-16.22-11.08-23.24-17.78
			c-28.89-26.93-47.25-65.03-48.03-107.46l-7.96-200.67C77.68,136.54,79.61,144.29,90.13,168.53"/>
		<path class="st1" d="M400.67,111.25c-9.32-16.74-30.75-55.24-44.62-80c-7.39-13.29-13.06-22.63-35.55-22.63
			c-38.05,0-113.19,0-143.72,0c-14.56,0-22.44,2.07-34.43,23.09c-9.49,16.58-31,54.85-44.69,80.08c-12.18,22.41-1.8,40.3,1,46.48
			c4.8,10.52,130.96,300.41,130.96,300.41c3.68,8.46,6.93,14.78,10.36,18.84c2.75,3.22,5.67,4.87,9.19,4.88
			c3.57-0.01,6.47-1.66,9.22-4.88c3.44-4.06,6.69-10.38,10.35-18.84c0,0,125.05-285.48,131.95-299.75
			C403.85,152.38,413.82,135.06,400.67,111.25z"/>
	</g>
	<g>
		<g>
			<path class="st0" d="M290.21,245.72c-35.89-20.04-80.43-10.74-105.47,20.67c2.67,33.5,30.64,59.88,64.83,59.88
				c34.23,0,62.23-26.43,64.85-59.99C307.76,257.99,299.55,250.94,290.21,245.72z M249.57,307.61c-15.94,0-28.87-12.94-28.87-28.89
				c0-15.93,12.93-28.88,28.87-28.88c15.95,0,28.89,12.95,28.89,28.88C278.46,294.67,265.52,307.61,249.57,307.61z"/>
			<path class="st0" d="M278.94,188.96c-2.7,0-5.25,0.97-7.17,2.74c-1.98,1.83-3.11,4.32-3.2,7.02c-0.1,2.92,1.01,5.72,3.11,7.91
				l42.99,44.69v-1.95v-28.36l-27.39-28.49C285.1,190.26,282.06,188.96,278.94,188.96z"/>
			<path class="st0" d="M300.19,69.13c-8,0-14.49,7.32-14.49,16.36v74.05h-4.92V63.87c0-9.04-6.49-16.36-14.49-16.36
				c-8,0-14.49,7.32-14.49,16.36v95.67h-4.92V63.87c0-9.04-6.49-16.36-14.49-16.36c-8.01,0-14.5,7.32-14.5,16.36v95.67h-4.42V85.49
				c0-9.03-6.49-16.36-14.49-16.36c-8.01,0-14.49,7.32-14.49,16.36v74.05v5.26v84.58v2.7c25.77-25.42,64.47-33.71,98.69-20.44
				l-18.02-18.73c-3.8-3.96-5.81-9.09-5.64-14.46c0.16-5.16,2.33-9.93,6.12-13.41c7.62-7.01,20.83-6.42,28.17,1.23l20.86,21.69
				v-43.15v-5.26V85.49C314.68,76.45,308.19,69.13,300.19,69.13z"/>
		</g>
		<path class="st0" d="M264.04,278.72c0,7.99-6.48,14.46-14.48,14.46c-7.98,0-14.46-6.48-14.46-14.46c0-7.99,6.48-14.45,14.46-14.45
			C257.57,264.27,264.04,270.73,264.04,278.72z"/>
	</g>
</g>
</svg>
