<?xml version="1.0" encoding="utf-8"?>
<!-- Generator: Adobe Illustrator 27.3.1, SVG Export Plug-In . SVG Version: 6.00 Build 0)  -->
<svg version="1.1" id="Capa_1" xmlns="http://www.w3.org/2000/svg" xmlns:xlink="http://www.w3.org/1999/xlink" x="0px" y="0px"
	 viewBox="0 0 500 500" style="enable-background:new 0 0 500 500;" xml:space="preserve">
<style type="text/css">
	.st0{fill:#AAAAAA;}
	.st1{fill:#F5F5F5;}
</style>
<g>
	<g>
		<path class="st0" d="M409,168.5l-128.4,296c-4.1,9.4-7.8,16.6-12.1,21.6c-2.3,2.6-4.6,4.7-7.2,6.1c16.5-1.6,44.5-7.2,75.7-23.9
			c3.3-1.7,6.5-3.5,9.7-5.5l0.4-0.3c8.5-5.1,16.2-11.1,23.2-17.8c28.9-26.9,47.3-65,48-107.5l8-200.7
			C421.5,136.5,419.5,144.3,409,168.5"/>
		<path class="st0" d="M90.1,168.5l128.4,296c4.1,9.4,7.8,16.6,12.1,21.6c2.3,2.6,4.6,4.7,7.2,6.1c-16.5-1.6-44.5-7.2-75.7-23.9
			c-3.3-1.7-6.5-3.5-9.7-5.5l-0.4-0.3c-8.4-5.1-16.2-11.1-23.2-17.8c-28.9-26.9-47.2-65-48-107.5l-8-200.7
			C77.7,136.5,79.6,144.3,90.1,168.5"/>
		<path class="st1" d="M400.7,111.2c-9.3-16.7-30.8-55.2-44.6-80C348.7,18,343,8.6,320.5,8.6c-38,0-113.2,0-143.7,0
			c-14.6,0-22.4,2.1-34.4,23.1c-9.5,16.6-31,54.8-44.7,80.1c-12.2,22.4-1.8,40.3,1,46.5c4.8,10.5,131,300.4,131,300.4
			c3.7,8.5,6.9,14.8,10.4,18.8c2.8,3.2,5.7,4.9,9.2,4.9c3.6,0,6.5-1.7,9.2-4.9c3.4-4.1,6.7-10.4,10.4-18.8c0,0,125-285.5,132-299.8
			C403.9,152.4,413.8,135.1,400.7,111.2z"/>
	</g>
	<g>
		<g>
			<path class="st0" d="M290.2,245.7c-35.9-20-80.4-10.7-105.5,20.7c2.7,33.5,30.6,59.9,64.8,59.9c34.2,0,62.2-26.4,64.8-60
				C307.8,258,299.5,250.9,290.2,245.7z M249.6,307.6c-15.9,0-28.9-12.9-28.9-28.9c0-15.9,12.9-28.9,28.9-28.9
				c16,0,28.9,13,28.9,28.9C278.5,294.7,265.5,307.6,249.6,307.6z"/>
			<path class="st0" d="M278.9,189c-2.7,0-5.2,1-7.2,2.7c-2,1.8-3.1,4.3-3.2,7c-0.1,2.9,1,5.7,3.1,7.9l43,44.7v-1.9V221l-27.4-28.5
				C285.1,190.3,282.1,189,278.9,189z"/>
			<path class="st0" d="M300.2,69.1c-8,0-14.5,7.3-14.5,16.4v74.1h-4.9V63.9c0-9-6.5-16.4-14.5-16.4s-14.5,7.3-14.5,16.4v95.7h-4.9
				V63.9c0-9-6.5-16.4-14.5-16.4c-8,0-14.5,7.3-14.5,16.4v95.7h-4.4v-74c0-9-6.5-16.4-14.5-16.4c-8,0-14.5,7.3-14.5,16.4v74.1v5.3
				v84.6v2.7c25.8-25.4,64.5-33.7,98.7-20.4l-18-18.7c-3.8-4-5.8-9.1-5.6-14.5c0.2-5.2,2.3-9.9,6.1-13.4c7.6-7,20.8-6.4,28.2,1.2
				l20.9,21.7v-43.1v-5.3V85.5C314.7,76.4,308.2,69.1,300.2,69.1z"/>
		</g>
		<path class="st0" d="M264,278.7c0,8-6.5,14.5-14.5,14.5c-8,0-14.5-6.5-14.5-14.5c0-8,6.5-14.5,14.5-14.5
			C257.6,264.3,264,270.7,264,278.7z"/>
	</g>
</g>
</svg>
