<?xml version="1.0" encoding="utf-8"?>
<!-- Generator: Adobe Illustrator 27.3.1, SVG Export Plug-In . SVG Version: 6.00 Build 0)  -->
<svg version="1.1" id="Capa_1" xmlns="http://www.w3.org/2000/svg" xmlns:xlink="http://www.w3.org/1999/xlink" x="0px" y="0px"
	 viewBox="0 0 500 500" style="enable-background:new 0 0 500 500;" xml:space="preserve">
<style type="text/css">
	.st0{fill:#6DC0BF;}
	.st1{fill:#98D3D8;}
	.st2{fill:#FFFFFF;}
</style>
<g>
	<path class="st0" d="M408.64,168.42L280.16,464.48c-4.11,9.43-7.81,16.6-12.08,21.58c-2.26,2.65-4.63,4.68-7.23,6.13
		c16.5-1.6,44.52-7.23,75.72-23.92c3.29-1.7,6.51-3.54,9.67-5.48l0.44-0.28c8.47-5.05,16.21-11.09,23.24-17.79
		c28.93-26.94,47.27-65.06,48.05-107.5l8-200.73C421.12,136.41,419.16,144.17,408.64,168.42"/>
	<path class="st0" d="M89.66,168.42l128.49,296.06c4.07,9.43,7.82,16.6,12.06,21.58c2.27,2.65,4.62,4.68,7.22,6.13
		c-16.49-1.6-44.49-7.23-75.7-23.92c-3.29-1.7-6.48-3.54-9.67-5.48l-0.44-0.28c-8.43-5.05-16.23-11.09-23.25-17.79
		c-28.9-26.94-47.26-65.06-48.05-107.5l-7.97-200.73C77.21,136.41,79.14,144.17,89.66,168.42"/>
	<path class="st1" d="M400.31,111.12c-9.32-16.74-30.76-55.26-44.63-80.04c-7.39-13.28-13.07-22.63-35.56-22.63
		c-38.07,0-113.23,0-143.78,0c-14.57,0-22.45,2.08-34.44,23.1c-9.5,16.6-31.01,54.87-44.71,80.11c-12.19,22.43-1.8,40.32,1,46.5
		c4.8,10.53,131.01,300.53,131.01,300.53c3.68,8.45,6.93,14.77,10.36,18.84c2.76,3.21,5.67,4.86,9.2,4.88
		c3.57-0.02,6.47-1.67,9.22-4.88c3.44-4.07,6.7-10.39,10.35-18.84c0,0,125.09-285.6,132-299.86
		C403.49,152.26,413.47,134.93,400.31,111.12z"/>
</g>
<g>
	<path class="st2" d="M269.34,135.54H227.7c-19.03,6.85-32.5,22.45-32.5,38.11c0,31.46,0,125.83,0,125.83
		c0,26.23,23.92,47.49,53.44,47.49c29.52,0,53.44-21.26,53.44-47.49c0,0,0-94.37,0-125.83
		C302.08,157.88,288.44,142.37,269.34,135.54z"/>
	<path class="st0" d="M207.37,239.77v57.48c0,20.25,18.47,36.68,41.27,36.68c22.79,0,41.26-16.42,41.26-36.68v-57.48H207.37z"/>
	<path class="st2" d="M207.02,130.62c0-7.59,0-8.95,0-20.01l0,0c0-11.03,3.55-19.99,17.03-19.99h49.18
		c13.48,0,17.04,8.95,17.04,19.99l0,0c0,11.05,0,9.96,0,20.01h-82.21"/>
	<path class="st2" d="M269.03,258.59c0,4.03-3.27,7.3-7.3,7.3c-4.02,0-7.28-3.27-7.28-7.3c0-4.02,3.26-7.28,7.28-7.28
		C265.76,251.3,269.03,254.57,269.03,258.59z"/>
	<path class="st2" d="M275.37,298.06c0,4.02-3.26,7.28-7.29,7.28c-4.02,0-7.29-3.27-7.29-7.28c0-4.03,3.26-7.3,7.29-7.3
		C272.11,290.76,275.37,294.03,275.37,298.06z"/>
	<path class="st2" d="M242.48,281.17c0,4.03-3.26,7.28-7.3,7.28c-4.02,0-7.29-3.26-7.29-7.28c0-4.03,3.27-7.28,7.29-7.28
		C239.21,273.88,242.48,277.14,242.48,281.17z"/>
	<path class="st0" d="M231.82,221.79c0-4.03,3.26-7.3,7.29-7.3c4.02,0,7.29,3.27,7.29,7.3c0,4.02-3.26,7.29-7.29,7.29
		C235.08,229.08,231.82,225.81,231.82,221.79z"/>
	<path class="st0" d="M225.48,182.34c0-4.03,3.27-7.3,7.3-7.3c4.02,0,7.28,3.27,7.28,7.3c0,4.02-3.26,7.28-7.28,7.28
		C228.75,189.62,225.48,186.35,225.48,182.34z"/>
	<path class="st0" d="M258.37,199.22c0-4.03,3.27-7.28,7.3-7.28c4.02,0,7.29,3.26,7.29,7.28c0,4.03-3.27,7.28-7.29,7.28
		C261.64,206.5,258.37,203.24,258.37,199.22z"/>
</g>
</svg>
