<?xml version="1.0" encoding="utf-8"?>
<!-- Generator: Adobe Illustrator 27.3.1, SVG Export Plug-In . SVG Version: 6.00 Build 0)  -->
<svg version="1.1" id="Capa_1" xmlns="http://www.w3.org/2000/svg" xmlns:xlink="http://www.w3.org/1999/xlink" x="0px" y="0px"
	 viewBox="0 0 500 500" style="enable-background:new 0 0 500 500;" xml:space="preserve">
<style type="text/css">
	.st0{fill:#CDCDCD;}
	.st1{fill:#E8E8E8;}
	.st2{fill:#FFFFFF;}
	.st3{fill:#6DC0BF;}
</style>
<g>
	<path class="st0" d="M408.6,168.4L280.2,464.5c-4.1,9.4-7.8,16.6-12.1,21.6c-2.3,2.6-4.6,4.7-7.2,6.1c16.5-1.6,44.5-7.2,75.7-23.9
		c3.3-1.7,6.5-3.5,9.7-5.5l0.4-0.3c8.5-5,16.2-11.1,23.2-17.8c28.9-26.9,47.3-65.1,48-107.5l8-200.7
		C421.1,136.4,419.2,144.2,408.6,168.4"/>
	<path class="st0" d="M89.7,168.4l128.5,296.1c4.1,9.4,7.8,16.6,12.1,21.6c2.3,2.6,4.6,4.7,7.2,6.1c-16.5-1.6-44.5-7.2-75.7-23.9
		c-3.3-1.7-6.5-3.5-9.7-5.5l-0.4-0.3c-8.4-5-16.2-11.1-23.2-17.8c-28.9-26.9-47.3-65.1-48.1-107.5l-8-200.7
		C77.2,136.4,79.1,144.2,89.7,168.4"/>
	<path class="st1" d="M400.3,111.1c-9.3-16.7-30.8-55.3-44.6-80c-7.4-13.3-13.1-22.6-35.6-22.6c-38.1,0-113.2,0-143.8,0
		c-14.6,0-22.4,2.1-34.4,23.1c-9.5,16.6-31,54.9-44.7,80.1c-12.2,22.4-1.8,40.3,1,46.5c4.8,10.5,131,300.5,131,300.5
		c3.7,8.5,6.9,14.8,10.4,18.8c2.8,3.2,5.7,4.9,9.2,4.9c3.6,0,6.5-1.7,9.2-4.9c3.4-4.1,6.7-10.4,10.4-18.8c0,0,125.1-285.6,132-299.9
		C403.5,152.3,413.5,134.9,400.3,111.1z"/>
</g>
<g>
	<path class="st2" d="M269.3,135.5h-41.6c-19,6.9-32.5,22.4-32.5,38.1c0,31.5,0,125.8,0,125.8c0,26.2,23.9,47.5,53.4,47.5
		s53.4-21.3,53.4-47.5c0,0,0-94.4,0-125.8C302.1,157.9,288.4,142.4,269.3,135.5z"/>
	<path class="st3" d="M207.4,239.8v57.5c0,20.2,18.5,36.7,41.3,36.7c22.8,0,41.3-16.4,41.3-36.7v-57.5H207.4z"/>
	<path class="st2" d="M207,130.6c0-7.6,0-8.9,0-20l0,0c0-11,3.6-20,17-20h49.2c13.5,0,17,8.9,17,20l0,0c0,11.1,0,10,0,20h-82.2"/>
	<path class="st2" d="M269,258.6c0,4-3.3,7.3-7.3,7.3c-4,0-7.3-3.3-7.3-7.3c0-4,3.3-7.3,7.3-7.3C265.8,251.3,269,254.6,269,258.6z"
		/>
	<path class="st2" d="M275.4,298.1c0,4-3.3,7.3-7.3,7.3c-4,0-7.3-3.3-7.3-7.3c0-4,3.3-7.3,7.3-7.3S275.4,294,275.4,298.1z"/>
	<path class="st2" d="M242.5,281.2c0,4-3.3,7.3-7.3,7.3c-4,0-7.3-3.3-7.3-7.3c0-4,3.3-7.3,7.3-7.3
		C239.2,273.9,242.5,277.1,242.5,281.2z"/>
	<path class="st3" d="M231.8,221.8c0-4,3.3-7.3,7.3-7.3c4,0,7.3,3.3,7.3,7.3c0,4-3.3,7.3-7.3,7.3
		C235.1,229.1,231.8,225.8,231.8,221.8z"/>
	<path class="st3" d="M225.5,182.3c0-4,3.3-7.3,7.3-7.3c4,0,7.3,3.3,7.3,7.3c0,4-3.3,7.3-7.3,7.3
		C228.8,189.6,225.5,186.4,225.5,182.3z"/>
	<path class="st3" d="M258.4,199.2c0-4,3.3-7.3,7.3-7.3c4,0,7.3,3.3,7.3,7.3c0,4-3.3,7.3-7.3,7.3
		C261.6,206.5,258.4,203.2,258.4,199.2z"/>
</g>
</svg>
