<?xml version="1.0" encoding="utf-8"?>
<!-- Generator: Adobe Illustrator 27.3.1, SVG Export Plug-In . SVG Version: 6.00 Build 0)  -->
<svg version="1.1" id="Capa_1" xmlns="http://www.w3.org/2000/svg" xmlns:xlink="http://www.w3.org/1999/xlink" x="0px" y="0px"
	 viewBox="0 0 500 500" style="enable-background:new 0 0 500 500;" xml:space="preserve">
<style type="text/css">
	.st0{fill:#0C5DA9;}
	.st1{fill:#1EA850;}
</style>
<g id="g12" transform="translate(-237.704423,765.974274) scale(0.100000,-0.100000)">
	<path id="path4" class="st0" d="M4830.08,7512.17c-184.85-278.24-279.52-489.95-339-760.52c-29.42-135.6-39.66-231.55-39.66-381.22
		c0.64-269.28,49.89-507.22,153.51-737.49c10.87-24.31,19.19-45.41,17.91-46.69s-10.87,10.23-20.47,24.95
		c-83.15,126.01-220.67,244.98-358.19,309.58c-127.29,59.49-280.8,90.19-415.76,83.15c-88.91-4.48-100.42-5.76-182.29-26.86
		c-170.78-44.13-296.15-117.05-418.96-244.34c-108.1-112.57-177.18-239.86-212.36-393.37c-14.71-62.04-16.63-85.71-16.63-177.18
		c0-115.77,7.68-165.66,40.94-265.45c53.73-160.55,180.38-327.49,321.09-421.51c64.6-42.85,161.19-91.47,221.95-111.3
		c40.3-13.43,148.39-39.02,165.02-39.66c18.55,0,5.12,12.79-32.62,31.98c-124.73,62.68-223.23,179.74-266.72,317.26
		c-17.27,53.73-23.67,165.66-14.07,228.35c15.99,101.06,68.44,200.84,147.75,279.52c63.32,63.32,123.45,100.42,208.52,129.84
		c53.73,18.55,63.32,19.83,150.31,19.83c106.18,0,143.92-7.68,228.35-47.97c89.55-42.85,168.86-117.05,224.51-211.08
		c14.71-24.31,241.78-539.85,390.17-883.33c47.97-111.94,88.91-200.84,91.47-198.28c2.56,2.56,26.22,55.01,52.45,116.41
		c48.61,113.21,97.86,227.07,185.49,425.35c150.31,341.56,189.97,433.03,189.97,435.59c0,12.79,65.24,131.12,91.47,166.3
		c62.68,82.51,159.91,149.67,266.73,182.29c40.94,12.79,62.04,14.71,140.72,14.71c79.31,0,99.78-1.92,140.72-14.71
		c176.54-55.01,313.42-193.17,358.83-362.67c18.55-67.8,19.83-197.65,3.2-258.41c-40.3-148.39-142.64-273.76-276.96-341.56
		c-31.98-15.99-44.13-29.42-25.58-29.42c17.91,0.64,120.89,25.58,166.94,40.94c192.53,64.6,376.1,216.19,475.88,392.73
		c34.54,60.76,67.8,144.56,85.71,215.55c12.15,50.53,14.07,74.2,14.71,188.69c0,122.81-1.28,134.96-17.91,197.65
		c-42.85,162.47-119.61,290.39-242.42,406.8c-124.73,117.69-280.8,195.09-459.25,227.71c-70.36,12.79-238.58,10.87-307.02-3.2
		c-126.01-26.86-244.34-75.48-338.36-140.08c-62.04-42.22-180.38-159.91-223.23-221.31c-38.38-55.01-41.58-52.45-13.43,10.23
		c98.5,216.19,152.87,475.24,152.87,727.9c0,394.65-124.73,773.31-375.46,1137.26c-26.22,37.74-47.97,68.44-48.61,68.44
		S4852.47,7545.43,4830.08,7512.17z"/>
	<path id="path6" class="st1" d="M3920.53,4825.09c22.39-21.11,35.18-46.05,99.14-193.81c40.3-93.39,111.93-260.33,160.55-370.98
		c47.97-110.66,111.3-257.77,140.72-326.21c52.45-124.09,126.65-295.51,360.75-834.71c72.92-166.3,129.2-287.83,138.8-298.07
		c8.95-9.59,24.31-18.55,34.54-20.47c23.03-5.12,59.49,5.12,72.92,20.47c9.59,10.87,83.79,177.82,256.49,576.3
		c95.94,222.59,222.59,515.54,257.77,598.05c17.91,42.22,58.85,137.52,90.83,211.08c32.62,74.2,103.62,237.94,157.99,364.59
		c54.37,126.65,104.9,239.22,111.29,250.73c7.04,10.87,21.75,26.22,33.26,33.26l20.47,13.43l-249.46-1.28l-249.45-1.92l-21.75-15.35
		c-23.03-16.63-48.61-65.88-118.97-231.55c-71.64-166.94-337.08-770.11-341.56-775.23c-2.56-2.56-20.47,31.98-40.3,76.76
		c-128.57,294.23-343.48,782.9-367.79,837.27c-29.42,67.16-49.25,92.75-80.59,104.26c-11.51,4.48-102.98,7.04-255.21,7.04h-237.3
		L3920.53,4825.09z"/>
	<path id="path8" class="st0" d="M3897.51,4607.62c2.56-66.52,8.32-259.69,13.43-430.47c16.63-520.66,23.67-672.25,33.26-719.58
		c40.3-195.09,146.47-371.62,292.95-485.48c101.7-79.95,204.68-134.96,328.13-175.9c97.86-33.26,219.39-62.68,219.39-54.37
		c0,1.92-8.32,15.35-18.55,30.06c-21.11,31.34-49.89,86.99-74.2,145.2c-9.59,23.03-23.03,53.09-29.42,67.16
		c-17.91,39.66-153.51,353.71-224.51,521.3c-67.8,158.63-226.43,526.41-283.35,655.62c-18.55,42.22-71,164.38-117.05,271.84
		c-108.74,255.21-126.65,294.23-136.24,294.23C3895.59,4727.23,3894.31,4699.09,3897.51,4607.62z"/>
	<path id="path10" class="st0" d="M5833.02,4717c-4.48-5.76-19.19-35.18-31.98-65.88c-12.79-30.06-69.72-163.1-126.65-294.87
		c-57.57-131.76-131.12-301.9-163.74-377.38s-82.51-190.61-110.66-255.85s-88.91-205.96-134.32-313.42
		c-216.83-506.59-259.69-601.25-299.99-658.18l-10.87-14.71l21.75,4.48c399.77,81.87,668.41,277.6,780.99,569.27
		c42.86,109.38,50.53,157.35,56.93,342.2c3.2,93.39,8.95,251.37,12.79,351.8c3.84,100.42,9.59,264.17,12.79,364.59
		c3.2,100.42,7.68,221.95,10.23,270.56C5853.49,4726.59,5850.93,4738.74,5833.02,4717z"/>
</g>
</svg>
