<?xml version="1.0" encoding="utf-8"?>
<!-- Generator: Adobe Illustrator 27.3.1, SVG Export Plug-In . SVG Version: 6.00 Build 0)  -->
<svg version="1.1" id="Capa_1" xmlns="http://www.w3.org/2000/svg" xmlns:xlink="http://www.w3.org/1999/xlink" x="0px" y="0px"
	 viewBox="0 0 500 500" style="enable-background:new 0 0 500 500;" xml:space="preserve">
<style type="text/css">
	.st0{fill:#CDCDCD;}
	.st1{fill:#F4F4F4;}
</style>
<g id="g12" transform="translate(-237.704423,765.974274) scale(0.100000,-0.100000)">
	<path id="path4" class="st0" d="M4830.1,7512.2c-184.9-278.2-279.5-490-339-760.5c-29.4-135.6-39.7-231.5-39.7-381.2
		c0.6-269.3,49.9-507.2,153.5-737.5c10.9-24.3,19.2-45.4,17.9-46.7s-10.9,10.2-20.5,25c-83.1,126-220.7,245-358.2,309.6
		c-127.3,59.5-280.8,90.2-415.8,83.1c-88.9-4.5-100.4-5.8-182.3-26.9c-170.8-44.1-296.1-117-419-244.3
		c-108.1-112.6-177.2-239.9-212.4-393.4c-14.7-62-16.6-85.7-16.6-177.2c0-115.8,7.7-165.7,40.9-265.5
		c53.7-160.5,180.4-327.5,321.1-421.5c64.6-42.9,161.2-91.5,221.9-111.3c40.3-13.4,148.4-39,165-39.7c18.6,0,5.1,12.8-32.6,32
		c-124.7,62.7-223.2,179.7-266.7,317.3c-17.3,53.7-23.7,165.7-14.1,228.4c16,101.1,68.4,200.8,147.8,279.5
		c63.3,63.3,123.4,100.4,208.5,129.8c53.7,18.5,63.3,19.8,150.3,19.8c106.2,0,143.9-7.7,228.4-48c89.5-42.9,168.9-117,224.5-211.1
		c14.7-24.3,241.8-539.9,390.2-883.3c48-111.9,88.9-200.8,91.5-198.3s26.2,55,52.5,116.4c48.6,113.2,97.9,227.1,185.5,425.4
		c150.3,341.6,190,433,190,435.6c0,12.8,65.2,131.1,91.5,166.3c62.7,82.5,159.9,149.7,266.7,182.3c40.9,12.8,62,14.7,140.7,14.7
		c79.3,0,99.8-1.9,140.7-14.7c176.5-55,313.4-193.2,358.8-362.7c18.5-67.8,19.8-197.6,3.2-258.4c-40.3-148.4-142.6-273.8-277-341.6
		c-32-16-44.1-29.4-25.6-29.4c17.9,0.6,120.9,25.6,166.9,40.9c192.5,64.6,376.1,216.2,475.9,392.7c34.5,60.8,67.8,144.6,85.7,215.5
		c12.1,50.5,14.1,74.2,14.7,188.7c0,122.8-1.3,135-17.9,197.6c-42.9,162.5-119.6,290.4-242.4,406.8
		c-124.7,117.7-280.8,195.1-459.2,227.7c-70.4,12.8-238.6,10.9-307-3.2c-126-26.9-244.3-75.5-338.4-140.1
		c-62-42.2-180.4-159.9-223.2-221.3c-38.4-55-41.6-52.5-13.4,10.2c98.5,216.2,152.9,475.2,152.9,727.9
		c0,394.6-124.7,773.3-375.5,1137.3c-26.2,37.7-48,68.4-48.6,68.4S4852.5,7545.4,4830.1,7512.2z"/>
	<path id="path6" class="st1" d="M3920.5,4825.1c22.4-21.1,35.2-46,99.1-193.8c40.3-93.4,111.9-260.3,160.5-371
		c48-110.7,111.3-257.8,140.7-326.2c52.5-124.1,126.6-295.5,360.8-834.7c72.9-166.3,129.2-287.8,138.8-298.1
		c9-9.6,24.3-18.6,34.5-20.5c23-5.1,59.5,5.1,72.9,20.5c9.6,10.9,83.8,177.8,256.5,576.3c95.9,222.6,222.6,515.5,257.8,598.1
		c17.9,42.2,58.9,137.5,90.8,211.1c32.6,74.2,103.6,237.9,158,364.6s104.9,239.2,111.3,250.7c7,10.9,21.8,26.2,33.3,33.3l20.5,13.4
		l-249.5-1.3l-249.5-1.9l-21.8-15.4c-23-16.6-48.6-65.9-119-231.5c-71.6-166.9-337.1-770.1-341.6-775.2c-2.6-2.6-20.5,32-40.3,76.8
		c-128.6,294.2-343.5,782.9-367.8,837.3c-29.4,67.2-49.2,92.8-80.6,104.3c-11.5,4.5-103,7-255.2,7h-237.3L3920.5,4825.1z"/>
	<path id="path8" class="st0" d="M3897.5,4607.6c2.6-66.5,8.3-259.7,13.4-430.5c16.6-520.7,23.7-672.2,33.3-719.6
		c40.3-195.1,146.5-371.6,292.9-485.5c101.7-79.9,204.7-135,328.1-175.9c97.9-33.3,219.4-62.7,219.4-54.4c0,1.9-8.3,15.4-18.5,30.1
		c-21.1,31.3-49.9,87-74.2,145.2c-9.6,23-23,53.1-29.4,67.2c-17.9,39.7-153.5,353.7-224.5,521.3
		c-67.8,158.6-226.4,526.4-283.4,655.6c-18.5,42.2-71,164.4-117.1,271.8c-108.7,255.2-126.6,294.2-136.2,294.2
		C3895.6,4727.2,3894.3,4699.1,3897.5,4607.6z"/>
	<path id="path10" class="st0" d="M5833,4717c-4.5-5.8-19.2-35.2-32-65.9c-12.8-30.1-69.7-163.1-126.6-294.9
		c-57.6-131.8-131.1-301.9-163.7-377.4s-82.5-190.6-110.7-255.9s-88.9-206-134.3-313.4c-216.8-506.6-259.7-601.2-300-658.2
		l-10.9-14.7l21.8,4.5c399.8,81.9,668.4,277.6,781,569.3c42.9,109.4,50.5,157.4,56.9,342.2c3.2,93.4,9,251.4,12.8,351.8
		c3.8,100.4,9.6,264.2,12.8,364.6s7.7,222,10.2,270.6C5853.5,4726.6,5850.9,4738.7,5833,4717z"/>
</g>
</svg>
