<?xml version="1.0" encoding="utf-8"?>
<!-- Generator: Adobe Illustrator 27.3.1, SVG Export Plug-In . SVG Version: 6.00 Build 0)  -->
<svg version="1.1" id="Capa_1" xmlns="http://www.w3.org/2000/svg" xmlns:xlink="http://www.w3.org/1999/xlink" x="0px" y="0px"
	 viewBox="0 0 300 300" style="enable-background:new 0 0 300 300;" xml:space="preserve">
<style type="text/css">
	.st0{fill:#1E3969;}
	.st1{fill:#00953B;}
</style>
<g>
	<g>
		<path class="st0" d="M20.78,250.25v4.57H7.92v7.95h12.31v4.57H7.92v8.6h13.14v4.57H2.44v-30.25H20.78z"/>
		<path class="st0" d="M33.19,250.25l9.32,11.93l9.32-11.93h4.89v30.25h-5.48v-21.24h-0.16l-8.2,10.65h-0.77l-8.2-10.65h-0.16v21.24
			h-5.48v-30.25H33.19z"/>
		<path class="st0" d="M76.02,250.25c2.65,0,4.81,0.82,6.47,2.46c1.66,1.64,2.49,3.75,2.49,6.33c0,2.61-0.84,4.73-2.52,6.34
			c-1.68,1.62-3.89,2.42-6.64,2.42h-5.28v12.69h-5.48v-30.25H76.02z M74.66,263.24c1.46,0,2.6-0.36,3.42-1.07
			c0.82-0.71,1.23-1.77,1.23-3.17c0-2.79-1.68-4.18-5.04-4.18h-3.74v8.42H74.66z"/>
		<path class="st0" d="M101.64,250.25c2.67,0,4.84,0.79,6.52,2.36c1.68,1.57,2.52,3.62,2.52,6.15c0,1.72-0.42,3.22-1.25,4.49
			c-0.83,1.28-2.07,2.28-3.71,3.02c0.91,0.52,1.71,1.23,2.42,2.12c0.7,0.9,1.58,2.4,2.62,4.53c1.73,3.67,3.02,6.19,3.86,7.58h-6.11
			c-0.42-0.66-0.99-1.72-1.71-3.18c-1.57-3.22-2.72-5.39-3.45-6.51s-1.44-1.91-2.11-2.38c-0.68-0.47-1.46-0.7-2.34-0.7h-1.99v12.78
			h-5.48v-30.25H101.64z M100.4,263.15c1.44,0,2.56-0.38,3.38-1.15c0.82-0.77,1.23-1.81,1.23-3.14c0-1.39-0.41-2.42-1.22-3.11
			c-0.81-0.69-1.97-1.03-3.47-1.03h-3.41v8.42H100.4z"/>
		<path class="st0" d="M138.62,250.25v4.57h-12.85v7.95h12.3v4.57h-12.3v8.6h13.14v4.57h-18.62v-30.25H138.62z"/>
		<path class="st0" d="M154.32,249.86c2.76,0,5.42,0.74,7.98,2.21v5.2c-2.94-1.89-5.54-2.84-7.82-2.84c-1.38,0-2.46,0.29-3.24,0.86
			c-0.78,0.57-1.17,1.33-1.17,2.28c0,1.14,0.72,2.19,2.17,3.16c0.41,0.29,1.97,1.1,4.69,2.43c2.33,1.17,4.01,2.47,5.04,3.9
			c1.03,1.43,1.54,3.15,1.54,5.15c0,2.6-0.88,4.7-2.63,6.29c-1.75,1.6-4.02,2.39-6.81,2.39c-1.81,0-3.37-0.21-4.68-0.64
			c-1.31-0.43-2.77-1.16-4.4-2.2v-5.76c3.03,2.68,5.89,4.03,8.57,4.03c1.34,0,2.42-0.31,3.25-0.93c0.83-0.62,1.24-1.44,1.24-2.47
			c0-1.4-0.72-2.54-2.15-3.42c-1.19-0.69-2.73-1.52-4.61-2.49c-2.23-1.08-3.9-2.35-5.01-3.79c-1.1-1.44-1.65-3.12-1.65-5.02
			c0-2.54,0.89-4.57,2.66-6.07C149.07,250.61,151.41,249.86,154.32,249.86z"/>
		<path class="st0" d="M183.94,250.25l12.53,30.25h-5.79l-2.94-7.36h-12.61l-2.74,7.36h-5.75l11.7-30.25H183.94z M176.79,268.7h9.16
			l-4.79-11.97L176.79,268.7z"/>
		<path class="st0" d="M210.1,249.86c2.76,0,5.42,0.74,7.98,2.21v5.2c-2.94-1.89-5.54-2.84-7.82-2.84c-1.38,0-2.46,0.29-3.24,0.86
			c-0.78,0.57-1.17,1.33-1.17,2.28c0,1.14,0.72,2.19,2.17,3.16c0.41,0.29,1.97,1.1,4.69,2.43c2.33,1.17,4.01,2.47,5.04,3.9
			c1.03,1.43,1.54,3.15,1.54,5.15c0,2.6-0.88,4.7-2.63,6.29c-1.75,1.6-4.02,2.39-6.81,2.39c-1.81,0-3.37-0.21-4.68-0.64
			c-1.31-0.43-2.77-1.16-4.4-2.2v-5.76c3.03,2.68,5.89,4.03,8.57,4.03c1.34,0,2.42-0.31,3.25-0.93c0.83-0.62,1.24-1.44,1.24-2.47
			c0-1.4-0.72-2.54-2.15-3.42c-1.19-0.69-2.73-1.52-4.61-2.49c-2.23-1.08-3.9-2.35-5.01-3.79c-1.1-1.44-1.65-3.12-1.65-5.02
			c0-2.54,0.89-4.57,2.66-6.07C204.85,250.61,207.19,249.86,210.1,249.86z"/>
		<path class="st0" d="M245.08,250.25v17.6c0,1.81,0.25,3.24,0.76,4.31c0.51,1.07,1.34,1.95,2.49,2.64
			c1.15,0.69,2.49,1.04,4.02,1.04c1.68,0,3.1-0.33,4.27-0.99c1.17-0.66,2.03-1.55,2.57-2.68c0.54-1.13,0.81-2.7,0.81-4.71v-17.21
			h5.48v17.97c0,4.07-1.14,7.2-3.43,9.39c-2.29,2.19-5.52,3.28-9.71,3.28c-2.63,0-4.9-0.5-6.83-1.5c-1.93-1-3.4-2.44-4.42-4.32
			c-1.02-1.88-1.52-4.1-1.52-6.64v-18.19H245.08z"/>
		<path class="st0" d="M276.48,250.25l8.02,19.42l7.82-19.42h5.75l-12.53,30.64h-1.91l-12.93-30.64H276.48z"/>
	</g>
</g>
<g>
	<path class="st0" d="M225.81,85.84c-0.67-0.35-3.49-1.47-4.36-1.78c-7.22-2.64-19.95-4.18-27.67,9.69
		c-7.45,13.36-33.91,64.19-40.2,76.89c-2.85,5.74-3.37,5.67-6.42,0.05c-6-11.06-33.43-62.39-42.33-80.94c-0.86-1.77-3.97-7-0.3-13.5
		c4.14-7.35,10.65-18.46,13.53-23.3c3.62-6.1,5.98-6.71,10.39-6.71c7.64,0,24.53,0,36.63,0l20.97-26.74h-71.37
		c-4.51,0-8.69,2.46-11,6.47L74.42,76.49c-1.23,2.13-1.85,4.51-1.85,6.9c0,2.57,0.71,5.13,2.13,7.37c0,0,57.51,109.08,64.96,121.72
		c1.16,1.97,4.42,4.67,7.31,5.5c0.54,0.16,1.1,0.27,1.65,0.35h0.02c0.57,0.08,1.17,0.12,1.74,0.12c2.36,0,4.75-0.66,6.88-2.08
		c0.14-0.11,0.29-0.21,0.45-0.31c1.46-1.07,2.71-2.36,3.54-3.87c3.68-6.67,65.35-122.39,65.35-122.39
		C227.78,87.96,227.63,86.77,225.81,85.84z"/>
	<path class="st1" d="M200.52,31.33c-0.74-1.37-3.11-5.36-3.11-5.36c-2.32-4.02-6.49-6.47-10.99-6.47c0,0-9.87-0.01-16.56-0.01
		c-3.46,0,10.31,3.38,5.49,11.09c-6.26,10-29.2,46.49-31.93,50.89c-7.52,12.57-1.32,22.56,3.86,28.43c0.6,0.7,2.72,2.96,3.28,3.47
		c1.54,1.38,2.65,1.03,3.82-0.83c1.89-3.05,5.41-8.54,8.47-13.44c8.37-13.56,31.31-50.57,36.73-59.2
		C201.82,36.29,202.41,34.86,200.52,31.33z"/>
</g>
</svg>
