<?xml version="1.0" encoding="utf-8"?>
<!-- Generator: Adobe Illustrator 27.3.1, SVG Export Plug-In . SVG Version: 6.00 Build 0)  -->
<svg version="1.1" id="Capa_1" xmlns="http://www.w3.org/2000/svg" xmlns:xlink="http://www.w3.org/1999/xlink" x="0px" y="0px"
	 viewBox="0 0 900 175" style="enable-background:new 0 0 900 175;" xml:space="preserve">
<style type="text/css">
	.st0{fill:#1E3969;}
	.st1{fill:#00953B;}
</style>
<g>
	<g>
		<path class="st0" d="M190.32,69.59v11.59h-32.6v20.15h31.21v11.59h-31.21v21.8h33.32v11.59h-47.22V69.59H190.32z"/>
		<path class="st0" d="M221.81,69.59l23.63,30.26l23.63-30.26h12.41v76.71h-13.91V92.43h-0.41l-20.8,27.02h-1.96l-20.8-27.02h-0.41
			v53.87h-13.9V69.59H221.81z"/>
		<path class="st0" d="M330.43,69.59c6.73,0,12.2,2.08,16.4,6.23c4.21,4.16,6.31,9.51,6.31,16.06c0,6.63-2.13,11.99-6.38,16.09
			c-4.26,4.1-9.87,6.15-16.84,6.15h-13.39v32.18h-13.9V69.59H330.43z M326.98,102.53c3.71,0,6.6-0.91,8.68-2.72
			c2.07-1.81,3.11-4.49,3.11-8.04c0-7.07-4.26-10.6-12.77-10.6h-9.48v21.36H326.98z"/>
		<path class="st0" d="M395.38,69.59c6.76,0,12.27,1.99,16.53,5.99c4.26,3.99,6.39,9.19,6.39,15.6c0,4.36-1.06,8.16-3.17,11.4
			c-2.11,3.24-5.24,5.79-9.4,7.66c2.3,1.32,4.34,3.11,6.13,5.38c1.79,2.27,4,6.1,6.64,11.48c4.39,9.3,7.65,15.71,9.78,19.22h-15.5
			c-1.06-1.68-2.51-4.37-4.33-8.07c-3.98-8.16-6.9-13.66-8.75-16.5c-1.85-2.84-3.64-4.85-5.35-6.04c-1.72-1.19-3.69-1.79-5.92-1.79
			h-5.05v32.4h-13.9V69.59H395.38z M392.24,102.32c3.64,0,6.5-0.97,8.58-2.91c2.07-1.94,3.11-4.59,3.11-7.96
			c0-3.51-1.03-6.14-3.09-7.88c-2.06-1.74-4.99-2.61-8.81-2.61h-8.65v21.36H392.24z"/>
		<path class="st0" d="M489.17,69.59v11.59h-32.6v20.15h31.2v11.59h-31.2v21.8h33.32v11.59h-47.22V69.59H489.17z"/>
		<path class="st0" d="M529,68.6c7,0,13.75,1.87,20.24,5.6v13.18c-7.45-4.8-14.06-7.2-19.83-7.2c-3.5,0-6.24,0.72-8.21,2.17
			c-1.98,1.45-2.96,3.38-2.96,5.79c0,2.89,1.84,5.57,5.51,8.02c1.03,0.73,4.99,2.78,11.89,6.15c5.9,2.96,10.16,6.26,12.77,9.88
			c2.61,3.62,3.91,7.98,3.91,13.07c0,6.59-2.22,11.91-6.67,15.95c-4.44,4.04-10.2,6.07-17.27,6.07c-4.6,0-8.56-0.54-11.87-1.62
			c-3.31-1.08-7.03-2.94-11.15-5.57v-14.61c7.69,6.81,14.93,10.21,21.73,10.21c3.4,0,6.14-0.78,8.24-2.36
			c2.09-1.57,3.14-3.66,3.14-6.26c0-3.55-1.82-6.44-5.46-8.68c-3.02-1.76-6.92-3.86-11.69-6.31c-5.66-2.75-9.9-5.95-12.7-9.61
			c-2.8-3.66-4.19-7.91-4.19-12.74c0-6.44,2.25-11.58,6.75-15.4C515.68,70.51,521.62,68.6,529,68.6z"/>
		<path class="st0" d="M604.1,69.59l31.77,76.71h-14.67l-7.47-18.67h-31.98l-6.95,18.67h-14.57l29.66-76.71H604.1z M585.97,116.37
			h23.22l-12.15-30.37L585.97,116.37z"/>
		<path class="st0" d="M670.44,68.6c7,0,13.75,1.87,20.24,5.6v13.18c-7.45-4.8-14.06-7.2-19.83-7.2c-3.5,0-6.24,0.72-8.21,2.17
			c-1.98,1.45-2.96,3.38-2.96,5.79c0,2.89,1.84,5.57,5.51,8.02c1.03,0.73,4.99,2.78,11.89,6.15c5.91,2.96,10.16,6.26,12.77,9.88
			c2.61,3.62,3.91,7.98,3.91,13.07c0,6.59-2.22,11.91-6.67,15.95c-4.44,4.04-10.2,6.07-17.27,6.07c-4.6,0-8.56-0.54-11.87-1.62
			c-3.31-1.08-7.03-2.94-11.15-5.57v-14.61c7.69,6.81,14.93,10.21,21.73,10.21c3.4,0,6.14-0.78,8.24-2.36
			c2.09-1.57,3.14-3.66,3.14-6.26c0-3.55-1.82-6.44-5.46-8.68c-3.02-1.76-6.92-3.86-11.69-6.31c-5.66-2.75-9.9-5.95-12.7-9.61
			c-2.8-3.66-4.19-7.91-4.19-12.74c0-6.44,2.25-11.58,6.75-15.4C657.12,70.51,663.06,68.6,670.44,68.6z"/>
		<path class="st0" d="M759.16,69.59v44.64c0,4.58,0.64,8.22,1.93,10.93c1.29,2.71,3.39,4.94,6.31,6.7
			c2.92,1.76,6.32,2.64,10.19,2.64c4.26,0,7.87-0.83,10.84-2.5c2.97-1.67,5.14-3.93,6.51-6.81c1.37-2.87,2.06-6.86,2.06-11.94V69.59
			h13.91v45.58c0,10.32-2.9,18.26-8.7,23.8c-5.8,5.54-14.01,8.32-24.62,8.32c-6.66,0-12.43-1.26-17.33-3.79
			c-4.89-2.52-8.62-6.18-11.2-10.95c-2.58-4.78-3.86-10.39-3.86-16.83V69.59H759.16z"/>
		<path class="st0" d="M838.79,69.59l20.34,49.26l19.83-49.26h14.57l-31.77,77.7h-4.84l-32.8-77.7H838.79z"/>
	</g>
</g>
<g>
	<path class="st0" d="M135,60.27c-0.56-0.29-2.9-1.22-3.62-1.48c-6-2.19-16.57-3.47-22.99,8.05c-6.19,11.1-28.17,53.33-33.4,63.88
		c-2.37,4.77-2.8,4.71-5.33,0.04c-4.99-9.19-27.78-51.84-35.17-67.25c-0.71-1.47-3.3-5.81-0.25-11.22
		c3.44-6.11,8.85-15.33,11.24-19.36c3.01-5.07,4.97-5.57,8.64-5.57c6.35,0,20.38,0,30.44,0l17.42-22.22H42.68
		c-3.75,0-7.22,2.04-9.14,5.38L9.22,52.49c-1.02,1.77-1.54,3.75-1.54,5.73c0,2.13,0.59,4.26,1.77,6.12c0,0,47.78,90.63,53.97,101.13
		c0.96,1.64,3.67,3.88,6.08,4.57c0.45,0.13,0.91,0.22,1.37,0.29h0.01c0.47,0.07,0.97,0.1,1.45,0.1c1.96,0,3.95-0.55,5.72-1.72
		c0.12-0.09,0.24-0.17,0.37-0.26c1.22-0.89,2.25-1.96,2.94-3.22c3.05-5.54,54.3-101.69,54.3-101.69
		C136.64,62.03,136.51,61.04,135,60.27z"/>
	<path class="st1" d="M113.99,14.97c-0.62-1.14-2.59-4.45-2.59-4.45c-1.93-3.34-5.39-5.38-9.13-5.38c0,0-8.2-0.01-13.76-0.01
		c-2.87,0,8.56,2.81,4.56,9.22c-5.2,8.31-24.26,38.63-26.53,42.28c-6.25,10.45-1.1,18.75,3.21,23.62c0.5,0.58,2.26,2.46,2.72,2.89
		c1.28,1.15,2.2,0.86,3.17-0.69c1.57-2.54,4.49-7.09,7.04-11.17c6.96-11.26,26.01-42.01,30.52-49.19
		C115.07,19.1,115.56,17.91,113.99,14.97z"/>
</g>
</svg>
